<?xml version="1.0" encoding="UTF-8" standalone="no"?>
<!DOCTYPE svg PUBLIC "-//W3C//DTD SVG 1.1//EN" "http://www.w3.org/Graphics/SVG/1.1/DTD/svg11.dtd">
<svg xmlns="http://www.w3.org/2000/svg" version="1.1" viewBox="0.00 0.00 186.00 188.00">
<g stroke-width="2.00" fill="none" stroke-linecap="butt">
<path stroke="#edf1fa" vector-effect="non-scaling-stroke" d="
  M 97.39 188.00
  C 127.22 187.09 154.68 170.07 170.31 145.02
  Q 190.97 111.90 181.74 74.12
  C 171.17 30.90 130.87 0.50 85.99 3.62
  C 74.84 4.39 62.47 7.12 52.44 12.11
  Q 7.06 34.66 0.00 85.43"
/>
<path stroke="#edf1fa" vector-effect="non-scaling-stroke" d="
  M 82.86 188.00
  Q 32.70 181.76 9.76 138.50
  Q 2.64 125.09 0.00 106.86"
/>
<path stroke="#edf1fa" vector-effect="non-scaling-stroke" d="
  M 180.74 95.85
  A 88.69 88.69 0.0 0 0 92.05 7.16
  A 88.69 88.69 0.0 0 0 3.36 95.85
  A 88.69 88.69 0.0 0 0 92.05 184.54
  A 88.69 88.69 0.0 0 0 180.74 95.85"
/>
<path stroke="#808080" vector-effect="non-scaling-stroke" d="
  M 119.95 97.78
  L 123.61 93.03"
/>
<path stroke="#edf1fa" vector-effect="non-scaling-stroke" d="
  M 123.61 93.03
  L 124.71 89.29
  Q 124.85 88.82 125.28 88.58
  Q 145.09 77.32 164.76 65.82
  Q 164.97 65.70 165.22 65.67
  Q 165.54 65.63 165.87 65.57
  Q 166.51 65.47 166.23 64.88
  L 165.33 63.06
  Q 165.04 62.48 164.48 62.81
  Q 153.78 68.96 143.03 75.02
  C 141.68 75.78 139.80 76.14 138.71 75.06
  C 136.09 72.48 137.84 70.64 140.26 69.25
  Q 150.93 63.08 161.58 56.89
  Q 162.04 56.62 161.78 56.16
  L 161.04 54.83
  Q 160.72 54.27 160.17 54.59
  Q 142.16 64.83 124.18 75.10
  C 120.09 77.44 117.60 71.78 120.59 70.06
  Q 138.56 59.70 156.50 49.24
  Q 157.30 48.77 156.67 48.10
  L 155.37 46.70
  Q 154.90 46.20 154.54 46.78
  Q 154.24 47.25 153.74 47.54
  Q 131.63 60.14 109.63 72.92
  Q 109.19 73.18 108.81 72.84
  Q 108.44 72.52 108.74 72.30"
/>
<path stroke="#808080" vector-effect="non-scaling-stroke" d="
  M 108.74 72.30
  L 105.29 68.05"
/>
<path stroke="#edf1fa" vector-effect="non-scaling-stroke" d="
  M 105.29 68.05
  L 149.53 42.56
  A 1.44 1.43 54.3 0 1 151.33 42.86
  L 153.41 45.22
  A 0.32 0.32 0.0 0 0 153.92 44.83
  Q 151.87 41.81 149.05 39.46
  Q 148.67 39.14 148.41 39.55
  Q 148.02 40.13 147.61 40.37
  Q 142.15 43.58 121.45 55.36
  Q 119.21 56.63 117.65 55.14
  C 115.14 52.75 116.77 50.74 119.16 49.34
  Q 131.37 42.23 143.70 35.34
  Q 144.22 35.05 143.79 34.64
  L 142.47 33.37
  Q 142.04 32.95 141.51 33.25
  Q 117.90 46.90 94.16 60.29
  C 92.20 61.40 90.11 60.81 89.46 58.69
  C 88.71 56.22 90.62 55.25 92.47 54.19
  Q 114.13 41.77 135.80 29.30
  Q 136.63 28.82 135.79 28.35
  L 133.86 27.26
  A 0.85 0.84 -45.3 0 0 133.00 27.27
  Q 116.80 36.72 100.48 45.95
  C 97.88 47.42 95.26 44.55 96.10 42.30
  Q 96.52 41.19 98.35 40.12
  Q 112.42 31.80 126.71 23.83
  Q 127.26 23.53 126.69 23.27
  L 124.34 22.24
  A 1.15 1.15 0.0 0 0 123.29 22.30
  Q 112.54 28.77 101.56 34.83
  C 96.61 37.55 93.85 31.88 98.87 29.02
  Q 107.10 24.34 115.42 19.65
  Q 116.01 19.31 115.42 18.97
  C 113.65 17.97 112.12 17.93 110.24 19.03
  Q 89.99 30.96 69.58 42.61
  C 65.14 45.14 61.85 39.86 66.86 36.96
  Q 84.44 26.81 101.86 16.75
  A 0.46 0.46 0.0 0 0 101.65 15.89
  L 90.96 15.46
  A 0.63 0.63 0.0 0 0 90.40 16.42
  Q 91.81 18.72 89.28 20.20
  Q 75.44 28.28 61.66 36.49
  C 56.55 39.54 53.06 34.23 57.88 31.40
  Q 69.26 24.73 80.79 18.32
  Q 82.71 17.25 84.96 16.41
  A 0.42 0.42 0.0 0 0 84.80 15.60
  Q 80.72 15.78 76.66 17.09
  C 74.13 17.91 72.34 20.19 69.70 20.93
  Q 68.08 21.38 67.51 19.77
  Q 67.29 19.12 66.64 19.36
  L 63.40 20.58
  Q 62.89 20.77 63.17 21.24
  Q 64.77 23.91 61.74 25.73
  Q 49.30 33.16 36.72 40.39
  Q 36.09 40.76 33.66 41.55
  C 31.34 42.30 28.13 46.62 26.94 48.74
  Q 26.45 49.60 27.30 49.09
  Q 37.96 42.70 48.85 36.71
  Q 50.45 35.83 51.88 36.88
  C 54.93 39.13 52.83 41.46 50.55 42.81
  Q 36.20 51.31 21.64 59.45
  C 19.67 60.55 18.79 61.89 18.26 63.96
  A 0.58 0.58 0.0 0 0 19.13 64.59
  Q 25.11 60.88 31.24 57.51
  C 35.43 55.20 38.65 60.33 33.67 63.25
  Q 25.60 67.99 17.47 72.64
  C 16.61 73.13 14.57 73.53 14.21 74.99
  Q 12.38 82.26 11.88 88.81
  Q 11.79 90.04 12.86 89.42
  Q 35.02 76.63 56.04 64.22
  C 60.56 61.55 64.34 66.99 58.56 70.32
  Q 36.93 82.78 15.29 95.26
  Q 13.79 96.13 12.23 94.42
  A 0.41 0.41 0.0 0 0 11.52 94.69
  L 11.52 100.09
  Q 11.52 100.94 12.27 100.51
  Q 27.30 91.81 42.34 83.14
  C 44.21 82.07 45.35 80.96 47.69 80.95
  Q 48.22 80.95 48.62 81.29
  C 50.68 83.01 50.77 85.38 48.33 86.82
  Q 30.61 97.33 12.71 107.55
  Q 12.18 107.85 12.30 108.44
  L 12.64 110.24
  Q 12.76 110.83 13.28 110.52
  L 21.65 105.52
  A 2.61 2.60 60.2 0 1 25.28 106.51
  Q 27.06 109.77 23.97 111.71
  Q 19.39 114.59 14.54 116.91
  Q 14.07 117.14 14.23 117.64
  L 14.84 119.53
  Q 15.06 120.20 15.66 119.85
  Q 34.31 109.05 52.99 98.27
  C 55.86 96.62 58.39 95.93 59.71 99.78
  Q 59.86 100.22 59.68 100.65
  Q 59.14 101.99 58.04 102.62
  Q 37.93 114.26 17.79 125.87
  Q 17.30 126.15 17.49 126.68
  L 18.13 128.45
  Q 18.36 129.08 18.93 128.74
  Q 25.08 125.12 31.32 121.66
  C 35.11 119.56 38.13 124.78 33.60 127.44
  Q 27.92 130.76 21.65 134.43
  A 0.81 0.81 0.0 0 0 21.39 135.58
  L 22.08 136.60
  Q 22.49 137.21 23.13 136.84
  L 64.98 112.68
  Q 65.45 112.41 65.97 112.53
  Q 68.40 113.08 68.62 115.36
  C 68.89 118.04 66.75 119.25 64.68 120.40
  Q 54.12 126.27 27.37 141.94
  A 0.82 0.80 -52.2 0 1 26.74 142.03
  L 26.20 141.88
  A 0.36 0.36 0.0 0 0 25.82 142.44
  L 32.67 151.46
  Q 33.46 152.49 34.57 151.81
  Q 39.12 149.04 44.36 146.15
  Q 46.09 145.18 47.44 146.06
  C 53.33 149.88 42.63 154.58 39.04 156.08
  Q 38.33 156.38 38.86 156.93
  L 40.21 158.35
  Q 40.64 158.79 41.17 158.48
  Q 58.68 148.30 76.24 138.21
  C 78.21 137.07 80.16 136.03 81.95 138.15
  C 83.68 140.19 82.15 142.06 80.19 143.19
  Q 63.50 152.86 46.77 162.54
  Q 46.03 162.97 46.77 163.41
  L 48.70 164.54
  Q 49.16 164.80 49.57 164.47
  C 51.26 163.11 55.85 159.87 57.94 161.81
  C 60.89 164.55 58.60 166.85 55.74 167.74
  A 0.32 0.32 0.0 0 0 55.58 168.25
  Q 57.38 170.50 59.52 169.25
  Q 73.86 160.92 88.24 152.62
  Q 90.15 151.52 91.27 151.60
  C 94.15 151.81 95.45 156.08 92.76 157.56
  Q 79.52 164.87 66.42 172.57
  Q 65.80 172.93 66.45 173.24
  C 68.04 173.98 69.56 174.22 71.23 173.26
  Q 81.04 167.62 90.80 161.91
  C 95.67 159.06 98.55 164.55 94.62 166.93
  Q 87.27 171.38 79.50 175.42
  A 0.45 0.44 45.2 0 0 79.50 176.21
  C 81.23 177.13 83.33 177.03 85.15 175.96
  Q 101.34 166.44 117.57 157.02
  C 121.42 154.79 125.05 160.14 120.68 162.73
  Q 108.81 169.76 96.78 176.20
  A 0.47 0.47 0.0 0 0 96.99 177.09
  Q 102.72 177.19 108.15 175.48
  A 0.66 0.65 -23.2 0 0 108.53 174.54
  Q 108.18 173.90 108.74 173.05
  Q 109.01 172.63 109.62 172.29
  Q 117.49 167.77 125.36 163.23
  C 127.54 161.97 129.78 161.73 131.11 164.11
  A 1.14 1.14 0.0 0 1 131.20 165.03
  L 130.79 166.27
  A 0.50 0.50 0.0 0 0 131.52 166.85
  L 136.51 163.78
  A 0.45 0.45 0.0 0 0 136.24 162.95
  C 132.82 163.26 133.09 158.55 135.87 157.11
  Q 139.76 155.11 149.60 149.26
  C 151.23 148.29 154.51 147.31 155.76 145.79
  C 157.51 143.64 162.56 136.97 163.26 131.95
  Q 163.34 131.41 163.75 131.06
  Q 166.49 128.76 167.17 125.22
  A 0.35 0.35 0.0 0 0 166.56 124.93
  Q 166.06 125.56 165.16 126.09
  Q 153.02 133.27 140.77 140.25
  C 136.46 142.70 133.43 137.18 137.92 134.64
  Q 152.27 126.54 166.53 118.30
  Q 166.57 118.28 168.51 117.39
  Q 171.07 116.22 170.50 113.10
  Q 170.40 112.56 169.93 112.84
  Q 158.63 119.48 147.26 125.99
  Q 144.56 127.54 143.01 125.50
  C 140.92 122.75 143.05 120.95 145.46 119.59
  Q 157.99 112.49 170.52 105.37
  C 172.20 104.41 172.82 103.19 172.28 101.35
  Q 172.12 100.80 171.62 101.09
  Q 161.14 107.27 150.59 113.31
  Q 147.61 115.02 145.65 115.73
  A 1.30 1.27 -42.5 0 1 144.71 115.70
  C 142.09 114.55 141.57 111.33 144.11 109.88
  Q 157.76 102.06 171.31 94.10
  C 172.50 93.39 172.89 92.05 172.28 90.89
  Q 172.01 90.37 171.49 90.66
  Q 145.05 105.88 118.60 121.08
  Q 115.74 122.72 113.77 123.40
  A 1.35 1.30 -41.6 0 1 112.80 123.36
  C 109.02 121.67 110.36 118.58 113.18 116.94
  Q 141.21 100.68 169.32 84.56
  Q 169.41 84.51 170.30 84.09
  Q 172.35 83.13 170.84 80.76
  Q 170.70 80.53 170.46 80.66
  Q 157.34 88.06 144.51 95.47
  C 140.36 97.86 137.51 92.08 141.45 89.89
  Q 153.68 83.09 165.73 75.96
  Q 167.21 75.08 168.92 74.63
  Q 169.54 74.47 169.37 73.84
  L 168.77 71.64
  Q 168.56 70.87 167.88 71.27
  L 120.41 98.81
  A 0.32 0.31 -27.0 0 1 119.96 98.67
  Q 119.76 98.24 119.95 97.78"
/>
<path stroke="#6e727b" vector-effect="non-scaling-stroke" d="
  M 105.29 68.05
  L 103.12 65.97"
/>
<path stroke="#edf1fa" vector-effect="non-scaling-stroke" d="
  M 103.12 65.97
  Q 108.18 63.50 112.83 60.04
  C 116.09 57.61 112.62 53.22 108.99 55.21
  Q 101.62 59.27 82.13 70.70
  C 80.61 71.59 78.94 72.26 78.85 74.23
  Q 78.75 76.26 80.76 77.58
  Q 81.18 77.85 81.64 77.66
  L 84.29 76.60"
/>
<path stroke="#6e727b" vector-effect="non-scaling-stroke" d="
  M 84.29 76.60
  L 73.34 87.55"
/>
<path stroke="#edf1fa" vector-effect="non-scaling-stroke" d="
  M 73.34 87.55
  Q 73.18 85.97 72.62 86.35
  Q 68.15 89.42 63.54 92.27
  Q 61.68 93.42 61.79 95.23
  Q 61.91 97.27 64.04 96.79"
/>
<path stroke="#6e727b" vector-effect="non-scaling-stroke" d="
  M 64.04 96.79
  Q 59.23 100.65 61.20 105.66"
/>
<path stroke="#edf1fa" vector-effect="non-scaling-stroke" d="
  M 61.20 105.66
  Q 60.67 105.67 60.30 105.24
  Q 60.00 104.91 59.62 105.14
  Q 50.15 110.83 40.45 116.14
  C 36.31 118.40 38.70 124.60 44.26 121.38
  Q 53.51 116.02 62.70 110.57
  Q 63.17 110.29 63.07 109.75
  L 62.82 108.42"
/>
<path stroke="#6e727b" vector-effect="non-scaling-stroke" d="
  M 62.82 108.42
  C 65.56 110.84 67.93 113.17 71.14 112.41
  Q 74.02 111.73 74.48 111.80
  C 78.25 112.37 78.65 116.08 77.73 119.56
  A 1.62 1.55 43.8 0 0 77.77 120.48
  Q 78.93 123.83 81.15 125.01"
/>
<path stroke="#edf1fa" vector-effect="non-scaling-stroke" d="
  M 81.15 125.01
  Q 67.19 132.77 53.17 140.82
  C 49.01 143.22 52.61 148.90 57.13 146.22
  Q 71.53 137.66 86.08 129.33
  Q 86.50 129.09 86.54 128.61
  Q 86.59 127.75 85.81 127.58"
/>
<path stroke="#6e727b" vector-effect="non-scaling-stroke" d="
  M 85.81 127.58
  Q 88.82 127.85 90.74 126.21
  Q 95.31 122.28 102.40 114.90"
/>
<path stroke="#edf1fa" vector-effect="non-scaling-stroke" d="
  M 102.40 114.90
  Q 102.03 117.42 104.88 117.77
  A 2.63 2.58 -56.2 0 0 106.48 117.44
  Q 120.42 109.46 134.74 101.18
  C 139.62 98.36 136.54 92.93 132.05 95.52
  Q 122.03 101.29 111.87 106.74
  C 109.63 107.94 108.16 110.02 106.04 111.52"
/>
<path stroke="#6e727b" vector-effect="non-scaling-stroke" d="
  M 106.04 111.52
  L 119.95 97.78"
/>
<path stroke="#808080" vector-effect="non-scaling-stroke" d="
  M 107.97 79.14
  Q 109.65 82.52 112.48 82.22"
/>
<path stroke="#808080" vector-effect="non-scaling-stroke" d="
  M 106.04 111.52
  L 102.40 114.90"
/>
<path stroke="#808080" vector-effect="non-scaling-stroke" d="
  M 85.81 127.58
  Q 83.36 127.44 81.15 125.01"
/>
<path stroke="#808080" vector-effect="non-scaling-stroke" d="
  M 62.82 108.42
  Q 61.73 107.36 61.20 105.66"
/>
<path stroke="#808080" vector-effect="non-scaling-stroke" d="
  M 64.04 96.79
  L 73.34 87.55"
/>
<path stroke="#6e727b" vector-effect="non-scaling-stroke" d="
  M 84.29 76.60
  L 87.58 73.34"
/>
<path stroke="#808080" vector-effect="non-scaling-stroke" d="
  M 103.12 65.97
  Q 98.27 62.73 95.00 66.01
  Q 91.20 69.83 87.58 73.34"
/>
<path stroke="#edf1fa" vector-effect="non-scaling-stroke" d="
  M 87.58 73.34
  Q 85.27 74.05 84.29 76.60"
/>
<path stroke="#6e727b" vector-effect="non-scaling-stroke" d="
  M 123.61 93.03
  C 123.61 91.04 123.84 89.30 122.74 87.58
  Q 120.68 84.34 117.41 82.25
  A 1.50 1.48 59.0 0 0 116.52 82.02
  L 112.48 82.22"
/>
<path stroke="#edf1fa" vector-effect="non-scaling-stroke" d="
  M 112.48 82.22
  C 114.86 80.91 117.96 79.13 116.45 76.05
  C 115.15 73.41 112.05 75.06 109.53 75.92
  Q 109.08 76.07 108.83 76.48
  Q 108.03 77.79 107.97 79.14"
/>
<path stroke="#6e727b" vector-effect="non-scaling-stroke" d="
  M 107.97 79.14
  L 108.74 72.30"
/>
<path stroke="#edf1fa" vector-effect="non-scaling-stroke" d="
  M 93.2346 35.9057
  A 3.17 3.17 0.0 0 0 88.9043 34.7454
  L 16.8857 76.3254
  A 3.17 3.17 0.0 0 0 15.7254 80.6557
  L 15.8054 80.7943
  A 3.17 3.17 0.0 0 0 20.1357 81.9546
  L 92.1543 40.3746
  A 3.17 3.17 0.0 0 0 93.3146 36.0443
  L 93.2346 35.9057"
/>
<path stroke="#edf1fa" vector-effect="non-scaling-stroke" d="
  M 61.3312 43.4786
  A 2.99 2.99 0.0 0 0 57.2411 42.4056
  L 40.1804 52.3750
  A 2.99 2.99 0.0 0 0 39.1074 56.4651
  L 39.2688 56.7414
  A 2.99 2.99 0.0 0 0 43.3589 57.8144
  L 60.4196 47.8450
  A 2.99 2.99 0.0 0 0 61.4926 43.7549
  L 61.3312 43.4786"
/>
<path stroke="#edf1fa" vector-effect="non-scaling-stroke" d="
  M 93.1137 46.5597
  A 3.06 3.06 0.0 0 0 88.9317 45.4470
  L 65.4688 59.0480
  A 3.06 3.06 0.0 0 0 64.3560 63.2299
  L 64.4663 63.4203
  A 3.06 3.06 0.0 0 0 68.6483 64.5330
  L 92.1112 50.9320
  A 3.06 3.06 0.0 0 0 93.2240 46.7501
  L 93.1137 46.5597"
/>
<path stroke="#edf1fa" vector-effect="non-scaling-stroke" d="
  M 86.5129 61.1452
  A 3.10 3.10 0.0 0 0 82.2762 60.0179
  L 54.1242 76.3370
  A 3.10 3.10 0.0 0 0 52.9969 80.5737
  L 53.0671 80.6948
  A 3.10 3.10 0.0 0 0 57.3038 81.8221
  L 85.4558 65.5030
  A 3.10 3.10 0.0 0 0 86.5831 61.2663
  L 86.5129 61.1452"
/>
<path stroke="#edf1fa" vector-effect="non-scaling-stroke" d="
  M 75.9747 77.9905
  A 3.21 3.21 0.0 0 0 71.5918 76.8079
  L 29.9981 100.7253
  A 3.21 3.21 0.0 0 0 28.8155 105.1082
  L 28.8853 105.2295
  A 3.21 3.21 0.0 0 0 33.2682 106.4121
  L 74.8619 82.4947
  A 3.21 3.21 0.0 0 0 76.0445 78.1118
  L 75.9747 77.9905"
/>
<path stroke="#edf1fa" vector-effect="non-scaling-stroke" d="
  M 139.4866 115.9164
  A 3.00 3.00 0.0 0 0 135.3885 114.8184
  L 62.9715 156.6284
  A 3.00 3.00 0.0 0 0 61.8734 160.7264
  L 62.0334 161.0036
  A 3.00 3.00 0.0 0 0 66.1315 162.1016
  L 138.5485 120.2916
  A 3.00 3.00 0.0 0 0 139.6466 116.1936
  L 139.4866 115.9164"
/>
<path stroke="#edf1fa" vector-effect="non-scaling-stroke" d="
  M 30.80 147.41
  L 31.83 149.18
  Q 32.16 149.75 32.73 149.42
  Q 52.39 138.02 71.92 126.42
  Q 73.72 125.35 73.48 124.03
  C 72.73 120.07 69.89 120.58 67.13 122.18
  Q 48.06 133.29 28.82 144.23
  Q 28.21 144.58 28.70 145.08
  L 30.14 146.55
  Q 30.52 146.94 30.80 147.41"
/>
<path stroke="#edf1fa" vector-effect="non-scaling-stroke" d="
  M 107.7254 123.5871
  A 3.06 3.06 0.0 0 0 103.5454 122.4670
  L 86.4846 132.3170
  A 3.06 3.06 0.0 0 0 85.3646 136.4971
  L 85.4546 136.6529
  A 3.06 3.06 0.0 0 0 89.6346 137.7730
  L 106.6954 127.9230
  A 3.06 3.06 0.0 0 0 107.8154 123.7429
  L 107.7254 123.5871"
/>
<path stroke="#edf1fa" vector-effect="non-scaling-stroke" d="
  M 139.3356 126.8344
  A 3.17 3.17 0.0 0 0 135.0073 125.6666
  L 111.7225 139.0559
  A 3.17 3.17 0.0 0 0 110.5546 143.3842
  L 110.6244 143.5056
  A 3.17 3.17 0.0 0 0 114.9527 144.6734
  L 138.2375 131.2841
  A 3.17 3.17 0.0 0 0 139.4054 126.9558
  L 139.3356 126.8344"
/>
<path stroke="#edf1fa" vector-effect="non-scaling-stroke" d="
  M 159.12 139.12
  C 161.18 136.21 158.64 133.72 155.59 135.42
  Q 141.62 143.24 127.80 151.34
  C 126.48 152.12 125.04 152.79 125.09 154.49
  C 125.18 157.15 127.72 158.64 129.83 157.41
  Q 141.95 150.33 154.26 143.58
  Q 157.08 142.03 159.12 139.12"
/>
<path stroke="#edf1fa" vector-effect="non-scaling-stroke" d="
  M 132.8322 141.1630
  A 3.10 3.10 0.0 0 0 128.5976 140.0284
  L 100.3824 156.3184
  A 3.10 3.10 0.0 0 0 99.2478 160.5530
  L 99.3078 160.6570
  A 3.10 3.10 0.0 0 0 103.5424 161.7916
  L 131.7576 145.5016
  A 3.10 3.10 0.0 0 0 132.8922 141.2670
  L 132.8322 141.1630"
/>
<path stroke="#edf1fa" vector-effect="non-scaling-stroke" d="
  M 107.1900 145.1435
  A 3.12 3.12 0.0 0 0 102.9162 144.0462
  L 98.0444 146.9274
  A 3.12 3.12 0.0 0 0 96.9471 151.2011
  L 97.1100 151.4765
  A 3.12 3.12 0.0 0 0 101.3838 152.5738
  L 106.2556 149.6926
  A 3.12 3.12 0.0 0 0 107.3529 145.4189
  L 107.1900 145.1435"
/>
<path stroke="#edf1fa" vector-effect="non-scaling-stroke" d="
  M 134.6737 75.9112
  A 3.08 3.08 0.0 0 0 130.4586 74.8133
  L 125.5423 77.6977
  A 3.08 3.08 0.0 0 0 124.4443 81.9128
  L 124.6063 82.1888
  A 3.08 3.08 0.0 0 0 128.8214 83.2867
  L 133.7377 80.4023
  A 3.08 3.08 0.0 0 0 134.8357 76.1872
  L 134.6737 75.9112"
/>
<path stroke="#808080" vector-effect="non-scaling-stroke" d="
  M 87.25 79.27
  Q 86.73 79.54 86.55 79.84"
/>
<path stroke="#6e727b" vector-effect="non-scaling-stroke" d="
  M 86.55 79.84
  L 83.51 82.96"
/>
<path stroke="#808080" vector-effect="non-scaling-stroke" d="
  M 83.51 82.96
  L 74.42 91.96"
/>
<path stroke="#6e727b" vector-effect="non-scaling-stroke" d="
  M 74.42 91.96
  L 64.43 101.98"
/>
<path stroke="#808080" vector-effect="non-scaling-stroke" d="
  M 64.43 101.98
  C 64.00 104.68 66.12 106.06 67.93 107.76"
/>
<path stroke="#6e727b" vector-effect="non-scaling-stroke" d="
  M 67.93 107.76
  L 68.71 108.41
  Q 69.11 108.75 69.63 108.65
  L 74.81 107.66"
/>
<path stroke="#808080" vector-effect="non-scaling-stroke" d="
  M 74.81 107.66
  Q 78.88 108.95 80.20 110.83"
/>
<path stroke="#6e727b" vector-effect="non-scaling-stroke" d="
  M 80.20 110.83
  Q 82.06 113.55 82.43 117.16"
/>
<path stroke="#808080" vector-effect="non-scaling-stroke" d="
  M 82.43 117.16
  Q 81.69 118.62 81.74 120.36"
/>
<path stroke="#6e727b" vector-effect="non-scaling-stroke" d="
  M 81.74 120.36
  L 85.00 123.39"
/>
<path stroke="#808080" vector-effect="non-scaling-stroke" d="
  M 85.00 123.39
  C 88.32 124.60 90.24 121.80 92.56 119.14"
/>
<path stroke="#6e727b" vector-effect="non-scaling-stroke" d="
  M 92.56 119.14
  L 102.99 108.97"
/>
<path stroke="#808080" vector-effect="non-scaling-stroke" d="
  M 102.99 108.97
  L 109.53 102.49"
/>
<path stroke="#6e727b" vector-effect="non-scaling-stroke" d="
  M 109.53 102.49
  Q 114.20 98.01 118.64 93.36
  C 121.34 90.53 118.57 88.13 116.28 85.96
  A 1.00 1.00 0.0 0 0 115.43 85.70
  Q 110.15 86.52 107.14 84.42"
/>
<path stroke="#808080" vector-effect="non-scaling-stroke" d="
  M 107.14 84.42
  L 105.42 82.28"
/>
<path stroke="#6e727b" vector-effect="non-scaling-stroke" d="
  M 105.42 82.28
  Q 103.56 78.89 104.36 75.76"
/>
<path stroke="#808080" vector-effect="non-scaling-stroke" d="
  M 104.36 75.76
  Q 105.76 73.04 101.97 70.20"
/>
<path stroke="#6e727b" vector-effect="non-scaling-stroke" d="
  M 101.97 70.20
  Q 100.90 68.49 99.42 68.33
  Q 98.31 68.21 96.91 69.45
  Q 91.79 74.01 87.25 79.27"
/>
<path stroke="#edf1fa" vector-effect="non-scaling-stroke" d="
  M 101.97 70.20
  Q 94.25 73.69 87.25 79.27"
/>
<path stroke="#edf1fa" vector-effect="non-scaling-stroke" d="
  M 104.36 75.76
  Q 98.72 79.19 92.88 82.37
  C 90.63 83.60 89.52 83.66 87.90 81.59
  Q 87.24 80.73 86.55 79.84"
/>
<path stroke="#edf1fa" vector-effect="non-scaling-stroke" d="
  M 105.42 82.28
  Q 104.28 82.10 104.10 81.12
  A 1.11 1.11 0.0 0 0 102.46 80.36
  L 64.43 101.98"
/>
<path stroke="#edf1fa" vector-effect="non-scaling-stroke" d="
  M 74.42 91.96
  Q 73.99 93.55 74.50 93.24
  Q 78.08 91.03 81.68 88.94
  Q 87.23 85.71 83.51 82.96"
/>
<path stroke="#edf1fa" vector-effect="non-scaling-stroke" d="
  M 107.14 84.42
  Q 102.63 88.07 97.24 90.82
  Q 96.76 91.06 95.88 90.74"
/>
<path stroke="#808080" vector-effect="non-scaling-stroke" d="
  M 95.88 90.74
  Q 95.38 90.30 94.71 90.55
  Q 94.29 90.71 93.98 91.29
  Q 91.23 96.54 88.24 101.69
  Q 87.90 102.27 88.58 102.29
  L 89.12 102.31
  Q 89.61 102.33 89.84 101.91
  L 95.40 92.07"
/>
<path stroke="#edf1fa" vector-effect="non-scaling-stroke" d="
  M 95.40 92.07
  L 96.60 93.53
  A 0.73 0.73 0.0 0 0 97.51 93.72
  Q 102.92 90.93 108.11 87.78
  Q 109.47 86.95 110.94 86.75
  C 113.50 86.39 117.16 85.28 117.87 88.94
  Q 117.97 89.44 117.53 89.70
  Q 109.52 94.49 101.50 99.26
  Q 99.13 100.67 98.85 98.06"
/>
<path stroke="#808080" vector-effect="non-scaling-stroke" d="
  M 98.85 98.06
  Q 98.42 95.46 96.27 95.09
  A 1.96 1.96 0.0 0 0 94.33 95.90
  Q 91.89 99.38 94.50 101.99"
/>
<path stroke="#edf1fa" vector-effect="non-scaling-stroke" d="
  M 94.50 101.99
  Q 94.75 102.90 94.41 103.12
  Q 87.50 107.53 80.20 110.83"
/>
<path stroke="#edf1fa" vector-effect="non-scaling-stroke" d="
  M 74.81 107.66
  Q 81.17 102.81 87.92 99.47
  Q 88.37 99.25 88.61 98.81
  L 89.41 97.37"
/>
<path stroke="#808080" vector-effect="non-scaling-stroke" d="
  M 89.41 97.37
  Q 92.08 94.21 89.63 91.13
  A 2.09 2.09 0.0 0 0 86.27 91.26
  Q 84.79 93.44 86.06 96.90"
/>
<path stroke="#edf1fa" vector-effect="non-scaling-stroke" d="
  M 86.06 96.90
  L 67.93 107.76"
/>
<path stroke="#6e727b" vector-effect="non-scaling-stroke" d="
  M 89.41 97.37
  Q 86.93 97.76 86.06 96.90"
/>
<path stroke="#edf1fa" vector-effect="non-scaling-stroke" d="
  M 109.53 102.49
  L 109.74 101.05
  Q 109.81 100.60 109.44 100.32
  Q 107.50 98.88 105.96 99.77
  Q 94.42 106.44 82.86 113.16
  Q 82.42 113.42 82.42 113.93
  L 82.43 117.16"
/>
<path stroke="#6e727b" vector-effect="non-scaling-stroke" d="
  M 94.50 101.99
  C 97.51 102.95 99.10 100.80 98.85 98.06"
/>
<path stroke="#6e727b" vector-effect="non-scaling-stroke" d="
  M 95.40 92.07
  L 95.88 90.74"
/>
<path stroke="#edf1fa" vector-effect="non-scaling-stroke" d="
  M 102.99 108.97
  Q 93.43 114.54 83.78 119.82
  Q 82.54 120.49 81.74 120.36"
/>
<path stroke="#edf1fa" vector-effect="non-scaling-stroke" d="
  M 92.56 119.14
  Q 88.06 119.20 85.00 123.39"
/>
<path stroke="#808080" vector-effect="non-scaling-stroke" d="
  M 89.2025 92.9254
  A 1.08 1.08 0.0 0 0 88.1648 91.8047
  L 88.0049 91.7986
  A 1.08 1.08 0.0 0 0 86.8842 92.8363
  L 86.7975 95.0946
  A 1.08 1.08 0.0 0 0 87.8352 96.2153
  L 87.9951 96.2214
  A 1.08 1.08 0.0 0 0 89.1158 95.1837
  L 89.2025 92.9254"
/>
<path stroke="#808080" vector-effect="non-scaling-stroke" d="
  M 95.9121 101.0983
  A 2.29 1.19 92.2 0 0 97.1891 98.8557
  A 2.29 1.19 92.2 0 0 96.0879 96.5217
  A 2.29 1.19 92.2 0 0 94.8109 98.7643
  A 2.29 1.19 92.2 0 0 95.9121 101.0983"
/>
</g>
<path fill="#ffffff" d="
  M 0.00 0.00
  L 186.00 0.00
  L 186.00 188.00
  L 97.39 188.00
  C 127.22 187.09 154.68 170.07 170.31 145.02
  Q 190.97 111.90 181.74 74.12
  C 171.17 30.90 130.87 0.50 85.99 3.62
  C 74.84 4.39 62.47 7.12 52.44 12.11
  Q 7.06 34.66 0.00 85.43
  L 0.00 0.00
  Z"
/>
<path fill="#dbe3f5" d="
  M 97.39 188.00
  L 82.86 188.00
  Q 32.70 181.76 9.76 138.50
  Q 2.64 125.09 0.00 106.86
  L 0.00 85.43
  Q 7.06 34.66 52.44 12.11
  C 62.47 7.12 74.84 4.39 85.99 3.62
  C 130.87 0.50 171.17 30.90 181.74 74.12
  Q 190.97 111.90 170.31 145.02
  C 154.68 170.07 127.22 187.09 97.39 188.00
  Z
  M 180.74 95.85
  A 88.69 88.69 0.0 0 0 92.05 7.16
  A 88.69 88.69 0.0 0 0 3.36 95.85
  A 88.69 88.69 0.0 0 0 92.05 184.54
  A 88.69 88.69 0.0 0 0 180.74 95.85
  Z"
/>
<path fill="#ffffff" d="
  M 180.74 95.85
  A 88.69 88.69 0.0 0 1 92.05 184.54
  A 88.69 88.69 0.0 0 1 3.36 95.85
  A 88.69 88.69 0.0 0 1 92.05 7.16
  A 88.69 88.69 0.0 0 1 180.74 95.85
  Z
  M 119.95 97.78
  L 123.61 93.03
  L 124.71 89.29
  Q 124.85 88.82 125.28 88.58
  Q 145.09 77.32 164.76 65.82
  Q 164.97 65.70 165.22 65.67
  Q 165.54 65.63 165.87 65.57
  Q 166.51 65.47 166.23 64.88
  L 165.33 63.06
  Q 165.04 62.48 164.48 62.81
  Q 153.78 68.96 143.03 75.02
  C 141.68 75.78 139.80 76.14 138.71 75.06
  C 136.09 72.48 137.84 70.64 140.26 69.25
  Q 150.93 63.08 161.58 56.89
  Q 162.04 56.62 161.78 56.16
  L 161.04 54.83
  Q 160.72 54.27 160.17 54.59
  Q 142.16 64.83 124.18 75.10
  C 120.09 77.44 117.60 71.78 120.59 70.06
  Q 138.56 59.70 156.50 49.24
  Q 157.30 48.77 156.67 48.10
  L 155.37 46.70
  Q 154.90 46.20 154.54 46.78
  Q 154.24 47.25 153.74 47.54
  Q 131.63 60.14 109.63 72.92
  Q 109.19 73.18 108.81 72.84
  Q 108.44 72.52 108.74 72.30
  L 105.29 68.05
  L 149.53 42.56
  A 1.44 1.43 54.3 0 1 151.33 42.86
  L 153.41 45.22
  A 0.32 0.32 0.0 0 0 153.92 44.83
  Q 151.87 41.81 149.05 39.46
  Q 148.67 39.14 148.41 39.55
  Q 148.02 40.13 147.61 40.37
  Q 142.15 43.58 121.45 55.36
  Q 119.21 56.63 117.65 55.14
  C 115.14 52.75 116.77 50.74 119.16 49.34
  Q 131.37 42.23 143.70 35.34
  Q 144.22 35.05 143.79 34.64
  L 142.47 33.37
  Q 142.04 32.95 141.51 33.25
  Q 117.90 46.90 94.16 60.29
  C 92.20 61.40 90.11 60.81 89.46 58.69
  C 88.71 56.22 90.62 55.25 92.47 54.19
  Q 114.13 41.77 135.80 29.30
  Q 136.63 28.82 135.79 28.35
  L 133.86 27.26
  A 0.85 0.84 -45.3 0 0 133.00 27.27
  Q 116.80 36.72 100.48 45.95
  C 97.88 47.42 95.26 44.55 96.10 42.30
  Q 96.52 41.19 98.35 40.12
  Q 112.42 31.80 126.71 23.83
  Q 127.26 23.53 126.69 23.27
  L 124.34 22.24
  A 1.15 1.15 0.0 0 0 123.29 22.30
  Q 112.54 28.77 101.56 34.83
  C 96.61 37.55 93.85 31.88 98.87 29.02
  Q 107.10 24.34 115.42 19.65
  Q 116.01 19.31 115.42 18.97
  C 113.65 17.97 112.12 17.93 110.24 19.03
  Q 89.99 30.96 69.58 42.61
  C 65.14 45.14 61.85 39.86 66.86 36.96
  Q 84.44 26.81 101.86 16.75
  A 0.46 0.46 0.0 0 0 101.65 15.89
  L 90.96 15.46
  A 0.63 0.63 0.0 0 0 90.40 16.42
  Q 91.81 18.72 89.28 20.20
  Q 75.44 28.28 61.66 36.49
  C 56.55 39.54 53.06 34.23 57.88 31.40
  Q 69.26 24.73 80.79 18.32
  Q 82.71 17.25 84.96 16.41
  A 0.42 0.42 0.0 0 0 84.80 15.60
  Q 80.72 15.78 76.66 17.09
  C 74.13 17.91 72.34 20.19 69.70 20.93
  Q 68.08 21.38 67.51 19.77
  Q 67.29 19.12 66.64 19.36
  L 63.40 20.58
  Q 62.89 20.77 63.17 21.24
  Q 64.77 23.91 61.74 25.73
  Q 49.30 33.16 36.72 40.39
  Q 36.09 40.76 33.66 41.55
  C 31.34 42.30 28.13 46.62 26.94 48.74
  Q 26.45 49.60 27.30 49.09
  Q 37.96 42.70 48.85 36.71
  Q 50.45 35.83 51.88 36.88
  C 54.93 39.13 52.83 41.46 50.55 42.81
  Q 36.20 51.31 21.64 59.45
  C 19.67 60.55 18.79 61.89 18.26 63.96
  A 0.58 0.58 0.0 0 0 19.13 64.59
  Q 25.11 60.88 31.24 57.51
  C 35.43 55.20 38.65 60.33 33.67 63.25
  Q 25.60 67.99 17.47 72.64
  C 16.61 73.13 14.57 73.53 14.21 74.99
  Q 12.38 82.26 11.88 88.81
  Q 11.79 90.04 12.86 89.42
  Q 35.02 76.63 56.04 64.22
  C 60.56 61.55 64.34 66.99 58.56 70.32
  Q 36.93 82.78 15.29 95.26
  Q 13.79 96.13 12.23 94.42
  A 0.41 0.41 0.0 0 0 11.52 94.69
  L 11.52 100.09
  Q 11.52 100.94 12.27 100.51
  Q 27.30 91.81 42.34 83.14
  C 44.21 82.07 45.35 80.96 47.69 80.95
  Q 48.22 80.95 48.62 81.29
  C 50.68 83.01 50.77 85.38 48.33 86.82
  Q 30.61 97.33 12.71 107.55
  Q 12.18 107.85 12.30 108.44
  L 12.64 110.24
  Q 12.76 110.83 13.28 110.52
  L 21.65 105.52
  A 2.61 2.60 60.2 0 1 25.28 106.51
  Q 27.06 109.77 23.97 111.71
  Q 19.39 114.59 14.54 116.91
  Q 14.07 117.14 14.23 117.64
  L 14.84 119.53
  Q 15.06 120.20 15.66 119.85
  Q 34.31 109.05 52.99 98.27
  C 55.86 96.62 58.39 95.93 59.71 99.78
  Q 59.86 100.22 59.68 100.65
  Q 59.14 101.99 58.04 102.62
  Q 37.93 114.26 17.79 125.87
  Q 17.30 126.15 17.49 126.68
  L 18.13 128.45
  Q 18.36 129.08 18.93 128.74
  Q 25.08 125.12 31.32 121.66
  C 35.11 119.56 38.13 124.78 33.60 127.44
  Q 27.92 130.76 21.65 134.43
  A 0.81 0.81 0.0 0 0 21.39 135.58
  L 22.08 136.60
  Q 22.49 137.21 23.13 136.84
  L 64.98 112.68
  Q 65.45 112.41 65.97 112.53
  Q 68.40 113.08 68.62 115.36
  C 68.89 118.04 66.75 119.25 64.68 120.40
  Q 54.12 126.27 27.37 141.94
  A 0.82 0.80 -52.2 0 1 26.74 142.03
  L 26.20 141.88
  A 0.36 0.36 0.0 0 0 25.82 142.44
  L 32.67 151.46
  Q 33.46 152.49 34.57 151.81
  Q 39.12 149.04 44.36 146.15
  Q 46.09 145.18 47.44 146.06
  C 53.33 149.88 42.63 154.58 39.04 156.08
  Q 38.33 156.38 38.86 156.93
  L 40.21 158.35
  Q 40.64 158.79 41.17 158.48
  Q 58.68 148.30 76.24 138.21
  C 78.21 137.07 80.16 136.03 81.95 138.15
  C 83.68 140.19 82.15 142.06 80.19 143.19
  Q 63.50 152.86 46.77 162.54
  Q 46.03 162.97 46.77 163.41
  L 48.70 164.54
  Q 49.16 164.80 49.57 164.47
  C 51.26 163.11 55.85 159.87 57.94 161.81
  C 60.89 164.55 58.60 166.85 55.74 167.74
  A 0.32 0.32 0.0 0 0 55.58 168.25
  Q 57.38 170.50 59.52 169.25
  Q 73.86 160.92 88.24 152.62
  Q 90.15 151.52 91.27 151.60
  C 94.15 151.81 95.45 156.08 92.76 157.56
  Q 79.52 164.87 66.42 172.57
  Q 65.80 172.93 66.45 173.24
  C 68.04 173.98 69.56 174.22 71.23 173.26
  Q 81.04 167.62 90.80 161.91
  C 95.67 159.06 98.55 164.55 94.62 166.93
  Q 87.27 171.38 79.50 175.42
  A 0.45 0.44 45.2 0 0 79.50 176.21
  C 81.23 177.13 83.33 177.03 85.15 175.96
  Q 101.34 166.44 117.57 157.02
  C 121.42 154.79 125.05 160.14 120.68 162.73
  Q 108.81 169.76 96.78 176.20
  A 0.47 0.47 0.0 0 0 96.99 177.09
  Q 102.72 177.19 108.15 175.48
  A 0.66 0.65 -23.2 0 0 108.53 174.54
  Q 108.18 173.90 108.74 173.05
  Q 109.01 172.63 109.62 172.29
  Q 117.49 167.77 125.36 163.23
  C 127.54 161.97 129.78 161.73 131.11 164.11
  A 1.14 1.14 0.0 0 1 131.20 165.03
  L 130.79 166.27
  A 0.50 0.50 0.0 0 0 131.52 166.85
  L 136.51 163.78
  A 0.45 0.45 0.0 0 0 136.24 162.95
  C 132.82 163.26 133.09 158.55 135.87 157.11
  Q 139.76 155.11 149.60 149.26
  C 151.23 148.29 154.51 147.31 155.76 145.79
  C 157.51 143.64 162.56 136.97 163.26 131.95
  Q 163.34 131.41 163.75 131.06
  Q 166.49 128.76 167.17 125.22
  A 0.35 0.35 0.0 0 0 166.56 124.93
  Q 166.06 125.56 165.16 126.09
  Q 153.02 133.27 140.77 140.25
  C 136.46 142.70 133.43 137.18 137.92 134.64
  Q 152.27 126.54 166.53 118.30
  Q 166.57 118.28 168.51 117.39
  Q 171.07 116.22 170.50 113.10
  Q 170.40 112.56 169.93 112.84
  Q 158.63 119.48 147.26 125.99
  Q 144.56 127.54 143.01 125.50
  C 140.92 122.75 143.05 120.95 145.46 119.59
  Q 157.99 112.49 170.52 105.37
  C 172.20 104.41 172.82 103.19 172.28 101.35
  Q 172.12 100.80 171.62 101.09
  Q 161.14 107.27 150.59 113.31
  Q 147.61 115.02 145.65 115.73
  A 1.30 1.27 -42.5 0 1 144.71 115.70
  C 142.09 114.55 141.57 111.33 144.11 109.88
  Q 157.76 102.06 171.31 94.10
  C 172.50 93.39 172.89 92.05 172.28 90.89
  Q 172.01 90.37 171.49 90.66
  Q 145.05 105.88 118.60 121.08
  Q 115.74 122.72 113.77 123.40
  A 1.35 1.30 -41.6 0 1 112.80 123.36
  C 109.02 121.67 110.36 118.58 113.18 116.94
  Q 141.21 100.68 169.32 84.56
  Q 169.41 84.51 170.30 84.09
  Q 172.35 83.13 170.84 80.76
  Q 170.70 80.53 170.46 80.66
  Q 157.34 88.06 144.51 95.47
  C 140.36 97.86 137.51 92.08 141.45 89.89
  Q 153.68 83.09 165.73 75.96
  Q 167.21 75.08 168.92 74.63
  Q 169.54 74.47 169.37 73.84
  L 168.77 71.64
  Q 168.56 70.87 167.88 71.27
  L 120.41 98.81
  A 0.32 0.31 -27.0 0 1 119.96 98.67
  Q 119.76 98.24 119.95 97.78
  Z"
/>
<path fill="#dbe3f5" d="
  M 105.29 68.05
  L 103.12 65.97
  Q 108.18 63.50 112.83 60.04
  C 116.09 57.61 112.62 53.22 108.99 55.21
  Q 101.62 59.27 82.13 70.70
  C 80.61 71.59 78.94 72.26 78.85 74.23
  Q 78.75 76.26 80.76 77.58
  Q 81.18 77.85 81.64 77.66
  L 84.29 76.60
  L 73.34 87.55
  Q 73.18 85.97 72.62 86.35
  Q 68.15 89.42 63.54 92.27
  Q 61.68 93.42 61.79 95.23
  Q 61.91 97.27 64.04 96.79
  Q 59.23 100.65 61.20 105.66
  Q 60.67 105.67 60.30 105.24
  Q 60.00 104.91 59.62 105.14
  Q 50.15 110.83 40.45 116.14
  C 36.31 118.40 38.70 124.60 44.26 121.38
  Q 53.51 116.02 62.70 110.57
  Q 63.17 110.29 63.07 109.75
  L 62.82 108.42
  C 65.56 110.84 67.93 113.17 71.14 112.41
  Q 74.02 111.73 74.48 111.80
  C 78.25 112.37 78.65 116.08 77.73 119.56
  A 1.62 1.55 43.8 0 0 77.77 120.48
  Q 78.93 123.83 81.15 125.01
  Q 67.19 132.77 53.17 140.82
  C 49.01 143.22 52.61 148.90 57.13 146.22
  Q 71.53 137.66 86.08 129.33
  Q 86.50 129.09 86.54 128.61
  Q 86.59 127.75 85.81 127.58
  Q 88.82 127.85 90.74 126.21
  Q 95.31 122.28 102.40 114.90
  Q 102.03 117.42 104.88 117.77
  A 2.63 2.58 -56.2 0 0 106.48 117.44
  Q 120.42 109.46 134.74 101.18
  C 139.62 98.36 136.54 92.93 132.05 95.52
  Q 122.03 101.29 111.87 106.74
  C 109.63 107.94 108.16 110.02 106.04 111.52
  L 119.95 97.78
  Q 119.76 98.24 119.96 98.67
  A 0.32 0.31 -27.0 0 0 120.41 98.81
  L 167.88 71.27
  Q 168.56 70.87 168.77 71.64
  L 169.37 73.84
  Q 169.54 74.47 168.92 74.63
  Q 167.21 75.08 165.73 75.96
  Q 153.68 83.09 141.45 89.89
  C 137.51 92.08 140.36 97.86 144.51 95.47
  Q 157.34 88.06 170.46 80.66
  Q 170.70 80.53 170.84 80.76
  Q 172.35 83.13 170.30 84.09
  Q 169.41 84.51 169.32 84.56
  Q 141.21 100.68 113.18 116.94
  C 110.36 118.58 109.02 121.67 112.80 123.36
  A 1.35 1.30 -41.6 0 0 113.77 123.40
  Q 115.74 122.72 118.60 121.08
  Q 145.05 105.88 171.49 90.66
  Q 172.01 90.37 172.28 90.89
  C 172.89 92.05 172.50 93.39 171.31 94.10
  Q 157.76 102.06 144.11 109.88
  C 141.57 111.33 142.09 114.55 144.71 115.70
  A 1.30 1.27 -42.5 0 0 145.65 115.73
  Q 147.61 115.02 150.59 113.31
  Q 161.14 107.27 171.62 101.09
  Q 172.12 100.80 172.28 101.35
  C 172.82 103.19 172.20 104.41 170.52 105.37
  Q 157.99 112.49 145.46 119.59
  C 143.05 120.95 140.92 122.75 143.01 125.50
  Q 144.56 127.54 147.26 125.99
  Q 158.63 119.48 169.93 112.84
  Q 170.40 112.56 170.50 113.10
  Q 171.07 116.22 168.51 117.39
  Q 166.57 118.28 166.53 118.30
  Q 152.27 126.54 137.92 134.64
  C 133.43 137.18 136.46 142.70 140.77 140.25
  Q 153.02 133.27 165.16 126.09
  Q 166.06 125.56 166.56 124.93
  A 0.35 0.35 0.0 0 1 167.17 125.22
  Q 166.49 128.76 163.75 131.06
  Q 163.34 131.41 163.26 131.95
  C 162.56 136.97 157.51 143.64 155.76 145.79
  C 154.51 147.31 151.23 148.29 149.60 149.26
  Q 139.76 155.11 135.87 157.11
  C 133.09 158.55 132.82 163.26 136.24 162.95
  A 0.45 0.45 0.0 0 1 136.51 163.78
  L 131.52 166.85
  A 0.50 0.50 0.0 0 1 130.79 166.27
  L 131.20 165.03
  A 1.14 1.14 0.0 0 0 131.11 164.11
  C 129.78 161.73 127.54 161.97 125.36 163.23
  Q 117.49 167.77 109.62 172.29
  Q 109.01 172.63 108.74 173.05
  Q 108.18 173.90 108.53 174.54
  A 0.66 0.65 -23.2 0 1 108.15 175.48
  Q 102.72 177.19 96.99 177.09
  A 0.47 0.47 0.0 0 1 96.78 176.20
  Q 108.81 169.76 120.68 162.73
  C 125.05 160.14 121.42 154.79 117.57 157.02
  Q 101.34 166.44 85.15 175.96
  C 83.33 177.03 81.23 177.13 79.50 176.21
  A 0.45 0.44 45.2 0 1 79.50 175.42
  Q 87.27 171.38 94.62 166.93
  C 98.55 164.55 95.67 159.06 90.80 161.91
  Q 81.04 167.62 71.23 173.26
  C 69.56 174.22 68.04 173.98 66.45 173.24
  Q 65.80 172.93 66.42 172.57
  Q 79.52 164.87 92.76 157.56
  C 95.45 156.08 94.15 151.81 91.27 151.60
  Q 90.15 151.52 88.24 152.62
  Q 73.86 160.92 59.52 169.25
  Q 57.38 170.50 55.58 168.25
  A 0.32 0.32 0.0 0 1 55.74 167.74
  C 58.60 166.85 60.89 164.55 57.94 161.81
  C 55.85 159.87 51.26 163.11 49.57 164.47
  Q 49.16 164.80 48.70 164.54
  L 46.77 163.41
  Q 46.03 162.97 46.77 162.54
  Q 63.50 152.86 80.19 143.19
  C 82.15 142.06 83.68 140.19 81.95 138.15
  C 80.16 136.03 78.21 137.07 76.24 138.21
  Q 58.68 148.30 41.17 158.48
  Q 40.64 158.79 40.21 158.35
  L 38.86 156.93
  Q 38.33 156.38 39.04 156.08
  C 42.63 154.58 53.33 149.88 47.44 146.06
  Q 46.09 145.18 44.36 146.15
  Q 39.12 149.04 34.57 151.81
  Q 33.46 152.49 32.67 151.46
  L 25.82 142.44
  A 0.36 0.36 0.0 0 1 26.20 141.88
  L 26.74 142.03
  A 0.82 0.80 -52.2 0 0 27.37 141.94
  Q 54.12 126.27 64.68 120.40
  C 66.75 119.25 68.89 118.04 68.62 115.36
  Q 68.40 113.08 65.97 112.53
  Q 65.45 112.41 64.98 112.68
  L 23.13 136.84
  Q 22.49 137.21 22.08 136.60
  L 21.39 135.58
  A 0.81 0.81 0.0 0 1 21.65 134.43
  Q 27.92 130.76 33.60 127.44
  C 38.13 124.78 35.11 119.56 31.32 121.66
  Q 25.08 125.12 18.93 128.74
  Q 18.36 129.08 18.13 128.45
  L 17.49 126.68
  Q 17.30 126.15 17.79 125.87
  Q 37.93 114.26 58.04 102.62
  Q 59.14 101.99 59.68 100.65
  Q 59.86 100.22 59.71 99.78
  C 58.39 95.93 55.86 96.62 52.99 98.27
  Q 34.31 109.05 15.66 119.85
  Q 15.06 120.20 14.84 119.53
  L 14.23 117.64
  Q 14.07 117.14 14.54 116.91
  Q 19.39 114.59 23.97 111.71
  Q 27.06 109.77 25.28 106.51
  A 2.61 2.60 60.2 0 0 21.65 105.52
  L 13.28 110.52
  Q 12.76 110.83 12.64 110.24
  L 12.30 108.44
  Q 12.18 107.85 12.71 107.55
  Q 30.61 97.33 48.33 86.82
  C 50.77 85.38 50.68 83.01 48.62 81.29
  Q 48.22 80.95 47.69 80.95
  C 45.35 80.96 44.21 82.07 42.34 83.14
  Q 27.30 91.81 12.27 100.51
  Q 11.52 100.94 11.52 100.09
  L 11.52 94.69
  A 0.41 0.41 0.0 0 1 12.23 94.42
  Q 13.79 96.13 15.29 95.26
  Q 36.93 82.78 58.56 70.32
  C 64.34 66.99 60.56 61.55 56.04 64.22
  Q 35.02 76.63 12.86 89.42
  Q 11.79 90.04 11.88 88.81
  Q 12.38 82.26 14.21 74.99
  C 14.57 73.53 16.61 73.13 17.47 72.64
  Q 25.60 67.99 33.67 63.25
  C 38.65 60.33 35.43 55.20 31.24 57.51
  Q 25.11 60.88 19.13 64.59
  A 0.58 0.58 0.0 0 1 18.26 63.96
  C 18.79 61.89 19.67 60.55 21.64 59.45
  Q 36.20 51.31 50.55 42.81
  C 52.83 41.46 54.93 39.13 51.88 36.88
  Q 50.45 35.83 48.85 36.71
  Q 37.96 42.70 27.30 49.09
  Q 26.45 49.60 26.94 48.74
  C 28.13 46.62 31.34 42.30 33.66 41.55
  Q 36.09 40.76 36.72 40.39
  Q 49.30 33.16 61.74 25.73
  Q 64.77 23.91 63.17 21.24
  Q 62.89 20.77 63.40 20.58
  L 66.64 19.36
  Q 67.29 19.12 67.51 19.77
  Q 68.08 21.38 69.70 20.93
  C 72.34 20.19 74.13 17.91 76.66 17.09
  Q 80.72 15.78 84.80 15.60
  A 0.42 0.42 0.0 0 1 84.96 16.41
  Q 82.71 17.25 80.79 18.32
  Q 69.26 24.73 57.88 31.40
  C 53.06 34.23 56.55 39.54 61.66 36.49
  Q 75.44 28.28 89.28 20.20
  Q 91.81 18.72 90.40 16.42
  A 0.63 0.63 0.0 0 1 90.96 15.46
  L 101.65 15.89
  A 0.46 0.46 0.0 0 1 101.86 16.75
  Q 84.44 26.81 66.86 36.96
  C 61.85 39.86 65.14 45.14 69.58 42.61
  Q 89.99 30.96 110.24 19.03
  C 112.12 17.93 113.65 17.97 115.42 18.97
  Q 116.01 19.31 115.42 19.65
  Q 107.10 24.34 98.87 29.02
  C 93.85 31.88 96.61 37.55 101.56 34.83
  Q 112.54 28.77 123.29 22.30
  A 1.15 1.15 0.0 0 1 124.34 22.24
  L 126.69 23.27
  Q 127.26 23.53 126.71 23.83
  Q 112.42 31.80 98.35 40.12
  Q 96.52 41.19 96.10 42.30
  C 95.26 44.55 97.88 47.42 100.48 45.95
  Q 116.80 36.72 133.00 27.27
  A 0.85 0.84 -45.3 0 1 133.86 27.26
  L 135.79 28.35
  Q 136.63 28.82 135.80 29.30
  Q 114.13 41.77 92.47 54.19
  C 90.62 55.25 88.71 56.22 89.46 58.69
  C 90.11 60.81 92.20 61.40 94.16 60.29
  Q 117.90 46.90 141.51 33.25
  Q 142.04 32.95 142.47 33.37
  L 143.79 34.64
  Q 144.22 35.05 143.70 35.34
  Q 131.37 42.23 119.16 49.34
  C 116.77 50.74 115.14 52.75 117.65 55.14
  Q 119.21 56.63 121.45 55.36
  Q 142.15 43.58 147.61 40.37
  Q 148.02 40.13 148.41 39.55
  Q 148.67 39.14 149.05 39.46
  Q 151.87 41.81 153.92 44.83
  A 0.32 0.32 0.0 0 1 153.41 45.22
  L 151.33 42.86
  A 1.44 1.43 54.3 0 0 149.53 42.56
  L 105.29 68.05
  Z
  M 93.2346 35.9057
  A 3.17 3.17 0.0 0 0 88.9043 34.7454
  L 16.8857 76.3254
  A 3.17 3.17 0.0 0 0 15.7254 80.6557
  L 15.8054 80.7943
  A 3.17 3.17 0.0 0 0 20.1357 81.9546
  L 92.1543 40.3746
  A 3.17 3.17 0.0 0 0 93.3146 36.0443
  L 93.2346 35.9057
  Z
  M 61.3312 43.4786
  A 2.99 2.99 0.0 0 0 57.2411 42.4056
  L 40.1804 52.3750
  A 2.99 2.99 0.0 0 0 39.1074 56.4651
  L 39.2688 56.7414
  A 2.99 2.99 0.0 0 0 43.3589 57.8144
  L 60.4196 47.8450
  A 2.99 2.99 0.0 0 0 61.4926 43.7549
  L 61.3312 43.4786
  Z
  M 93.1137 46.5597
  A 3.06 3.06 0.0 0 0 88.9317 45.4470
  L 65.4688 59.0480
  A 3.06 3.06 0.0 0 0 64.3560 63.2299
  L 64.4663 63.4203
  A 3.06 3.06 0.0 0 0 68.6483 64.5330
  L 92.1112 50.9320
  A 3.06 3.06 0.0 0 0 93.2240 46.7501
  L 93.1137 46.5597
  Z
  M 86.5129 61.1452
  A 3.10 3.10 0.0 0 0 82.2762 60.0179
  L 54.1242 76.3370
  A 3.10 3.10 0.0 0 0 52.9969 80.5737
  L 53.0671 80.6948
  A 3.10 3.10 0.0 0 0 57.3038 81.8221
  L 85.4558 65.5030
  A 3.10 3.10 0.0 0 0 86.5831 61.2663
  L 86.5129 61.1452
  Z
  M 75.9747 77.9905
  A 3.21 3.21 0.0 0 0 71.5918 76.8079
  L 29.9981 100.7253
  A 3.21 3.21 0.0 0 0 28.8155 105.1082
  L 28.8853 105.2295
  A 3.21 3.21 0.0 0 0 33.2682 106.4121
  L 74.8619 82.4947
  A 3.21 3.21 0.0 0 0 76.0445 78.1118
  L 75.9747 77.9905
  Z
  M 139.4866 115.9164
  A 3.00 3.00 0.0 0 0 135.3885 114.8184
  L 62.9715 156.6284
  A 3.00 3.00 0.0 0 0 61.8734 160.7264
  L 62.0334 161.0036
  A 3.00 3.00 0.0 0 0 66.1315 162.1016
  L 138.5485 120.2916
  A 3.00 3.00 0.0 0 0 139.6466 116.1936
  L 139.4866 115.9164
  Z
  M 30.80 147.41
  L 31.83 149.18
  Q 32.16 149.75 32.73 149.42
  Q 52.39 138.02 71.92 126.42
  Q 73.72 125.35 73.48 124.03
  C 72.73 120.07 69.89 120.58 67.13 122.18
  Q 48.06 133.29 28.82 144.23
  Q 28.21 144.58 28.70 145.08
  L 30.14 146.55
  Q 30.52 146.94 30.80 147.41
  Z
  M 107.7254 123.5871
  A 3.06 3.06 0.0 0 0 103.5454 122.4670
  L 86.4846 132.3170
  A 3.06 3.06 0.0 0 0 85.3646 136.4971
  L 85.4546 136.6529
  A 3.06 3.06 0.0 0 0 89.6346 137.7730
  L 106.6954 127.9230
  A 3.06 3.06 0.0 0 0 107.8154 123.7429
  L 107.7254 123.5871
  Z
  M 139.3356 126.8344
  A 3.17 3.17 0.0 0 0 135.0073 125.6666
  L 111.7225 139.0559
  A 3.17 3.17 0.0 0 0 110.5546 143.3842
  L 110.6244 143.5056
  A 3.17 3.17 0.0 0 0 114.9527 144.6734
  L 138.2375 131.2841
  A 3.17 3.17 0.0 0 0 139.4054 126.9558
  L 139.3356 126.8344
  Z
  M 159.12 139.12
  C 161.18 136.21 158.64 133.72 155.59 135.42
  Q 141.62 143.24 127.80 151.34
  C 126.48 152.12 125.04 152.79 125.09 154.49
  C 125.18 157.15 127.72 158.64 129.83 157.41
  Q 141.95 150.33 154.26 143.58
  Q 157.08 142.03 159.12 139.12
  Z
  M 132.8322 141.1630
  A 3.10 3.10 0.0 0 0 128.5976 140.0284
  L 100.3824 156.3184
  A 3.10 3.10 0.0 0 0 99.2478 160.5530
  L 99.3078 160.6570
  A 3.10 3.10 0.0 0 0 103.5424 161.7916
  L 131.7576 145.5016
  A 3.10 3.10 0.0 0 0 132.8922 141.2670
  L 132.8322 141.1630
  Z
  M 107.1900 145.1435
  A 3.12 3.12 0.0 0 0 102.9162 144.0462
  L 98.0444 146.9274
  A 3.12 3.12 0.0 0 0 96.9471 151.2011
  L 97.1100 151.4765
  A 3.12 3.12 0.0 0 0 101.3838 152.5738
  L 106.2556 149.6926
  A 3.12 3.12 0.0 0 0 107.3529 145.4189
  L 107.1900 145.1435
  Z"
/>
<rect fill="#ffffff" x="-44.75" y="-3.25" transform="translate(54.52,58.35) rotate(-30.0)" width="89.50" height="6.50" rx="3.17"/>
<rect fill="#ffffff" x="-12.87" y="-3.15" transform="translate(50.30,50.11) rotate(-30.3)" width="25.74" height="6.30" rx="2.99"/>
<rect fill="#ffffff" x="-16.62" y="-3.17" transform="translate(78.79,54.99) rotate(-30.1)" width="33.24" height="6.34" rx="3.06"/>
<path fill="#dbe3f5" d="
  M 123.61 93.03
  C 123.61 91.04 123.84 89.30 122.74 87.58
  Q 120.68 84.34 117.41 82.25
  A 1.50 1.48 59.0 0 0 116.52 82.02
  L 112.48 82.22
  C 114.86 80.91 117.96 79.13 116.45 76.05
  C 115.15 73.41 112.05 75.06 109.53 75.92
  Q 109.08 76.07 108.83 76.48
  Q 108.03 77.79 107.97 79.14
  L 108.74 72.30
  Q 108.44 72.52 108.81 72.84
  Q 109.19 73.18 109.63 72.92
  Q 131.63 60.14 153.74 47.54
  Q 154.24 47.25 154.54 46.78
  Q 154.90 46.20 155.37 46.70
  L 156.67 48.10
  Q 157.30 48.77 156.50 49.24
  Q 138.56 59.70 120.59 70.06
  C 117.60 71.78 120.09 77.44 124.18 75.10
  Q 142.16 64.83 160.17 54.59
  Q 160.72 54.27 161.04 54.83
  L 161.78 56.16
  Q 162.04 56.62 161.58 56.89
  Q 150.93 63.08 140.26 69.25
  C 137.84 70.64 136.09 72.48 138.71 75.06
  C 139.80 76.14 141.68 75.78 143.03 75.02
  Q 153.78 68.96 164.48 62.81
  Q 165.04 62.48 165.33 63.06
  L 166.23 64.88
  Q 166.51 65.47 165.87 65.57
  Q 165.54 65.63 165.22 65.67
  Q 164.97 65.70 164.76 65.82
  Q 145.09 77.32 125.28 88.58
  Q 124.85 88.82 124.71 89.29
  L 123.61 93.03
  Z
  M 134.6737 75.9112
  A 3.08 3.08 0.0 0 0 130.4586 74.8133
  L 125.5423 77.6977
  A 3.08 3.08 0.0 0 0 124.4443 81.9128
  L 124.6063 82.1888
  A 3.08 3.08 0.0 0 0 128.8214 83.2867
  L 133.7377 80.4023
  A 3.08 3.08 0.0 0 0 134.8357 76.1872
  L 134.6737 75.9112
  Z"
/>
<path fill="#ffffff" d="
  M 103.12 65.97
  Q 98.27 62.73 95.00 66.01
  Q 91.20 69.83 87.58 73.34
  Q 85.27 74.05 84.29 76.60
  L 81.64 77.66
  Q 81.18 77.85 80.76 77.58
  Q 78.75 76.26 78.85 74.23
  C 78.94 72.26 80.61 71.59 82.13 70.70
  Q 101.62 59.27 108.99 55.21
  C 112.62 53.22 116.09 57.61 112.83 60.04
  Q 108.18 63.50 103.12 65.97
  Z"
/>
<rect fill="#ffffff" x="-19.37" y="-3.17" transform="translate(69.79,70.92) rotate(-30.1)" width="38.74" height="6.34" rx="3.10"/>
<path fill="#000000" d="
  M 103.12 65.97
  L 105.29 68.05
  L 108.74 72.30
  L 107.97 79.14
  Q 109.65 82.52 112.48 82.22
  L 116.52 82.02
  A 1.50 1.48 59.0 0 1 117.41 82.25
  Q 120.68 84.34 122.74 87.58
  C 123.84 89.30 123.61 91.04 123.61 93.03
  L 119.95 97.78
  L 106.04 111.52
  L 102.40 114.90
  Q 95.31 122.28 90.74 126.21
  Q 88.82 127.85 85.81 127.58
  Q 83.36 127.44 81.15 125.01
  Q 78.93 123.83 77.77 120.48
  A 1.62 1.55 43.8 0 1 77.73 119.56
  C 78.65 116.08 78.25 112.37 74.48 111.80
  Q 74.02 111.73 71.14 112.41
  C 67.93 113.17 65.56 110.84 62.82 108.42
  Q 61.73 107.36 61.20 105.66
  Q 59.23 100.65 64.04 96.79
  L 73.34 87.55
  L 84.29 76.60
  L 87.58 73.34
  Q 91.20 69.83 95.00 66.01
  Q 98.27 62.73 103.12 65.97
  Z
  M 87.25 79.27
  Q 86.73 79.54 86.55 79.84
  L 83.51 82.96
  L 74.42 91.96
  L 64.43 101.98
  C 64.00 104.68 66.12 106.06 67.93 107.76
  L 68.71 108.41
  Q 69.11 108.75 69.63 108.65
  L 74.81 107.66
  Q 78.88 108.95 80.20 110.83
  Q 82.06 113.55 82.43 117.16
  Q 81.69 118.62 81.74 120.36
  L 85.00 123.39
  C 88.32 124.60 90.24 121.80 92.56 119.14
  L 102.99 108.97
  L 109.53 102.49
  Q 114.20 98.01 118.64 93.36
  C 121.34 90.53 118.57 88.13 116.28 85.96
  A 1.00 1.00 0.0 0 0 115.43 85.70
  Q 110.15 86.52 107.14 84.42
  L 105.42 82.28
  Q 103.56 78.89 104.36 75.76
  Q 105.76 73.04 101.97 70.20
  Q 100.90 68.49 99.42 68.33
  Q 98.31 68.21 96.91 69.45
  Q 91.79 74.01 87.25 79.27
  Z"
/>
<path fill="#dbe3f5" d="
  M 101.97 70.20
  Q 94.25 73.69 87.25 79.27
  Q 91.79 74.01 96.91 69.45
  Q 98.31 68.21 99.42 68.33
  Q 100.90 68.49 101.97 70.20
  Z"
/>
<path fill="#ffffff" d="
  M 101.97 70.20
  Q 105.76 73.04 104.36 75.76
  Q 98.72 79.19 92.88 82.37
  C 90.63 83.60 89.52 83.66 87.90 81.59
  Q 87.24 80.73 86.55 79.84
  Q 86.73 79.54 87.25 79.27
  Q 94.25 73.69 101.97 70.20
  Z"
/>
<path fill="#dbe3f5" d="
  M 87.58 73.34
  L 84.29 76.60
  Q 85.27 74.05 87.58 73.34
  Z"
/>
<path fill="#ffffff" d="
  M 112.48 82.22
  Q 109.65 82.52 107.97 79.14
  Q 108.03 77.79 108.83 76.48
  Q 109.08 76.07 109.53 75.92
  C 112.05 75.06 115.15 73.41 116.45 76.05
  C 117.96 79.13 114.86 80.91 112.48 82.22
  Z"
/>
<rect fill="#ffffff" x="-5.93" y="-3.24" transform="translate(129.64,79.05) rotate(-30.4)" width="11.86" height="6.48" rx="3.08"/>
<path fill="#dbe3f5" d="
  M 104.36 75.76
  Q 103.56 78.89 105.42 82.28
  Q 104.28 82.10 104.10 81.12
  A 1.11 1.11 0.0 0 0 102.46 80.36
  L 64.43 101.98
  L 74.42 91.96
  Q 73.99 93.55 74.50 93.24
  Q 78.08 91.03 81.68 88.94
  Q 87.23 85.71 83.51 82.96
  L 86.55 79.84
  Q 87.24 80.73 87.90 81.59
  C 89.52 83.66 90.63 83.60 92.88 82.37
  Q 98.72 79.19 104.36 75.76
  Z"
/>
<rect fill="#ffffff" x="-27.20" y="-3.28" transform="translate(52.43,91.61) rotate(-29.9)" width="54.40" height="6.56" rx="3.21"/>
<path fill="#ffffff" d="
  M 105.42 82.28
  L 107.14 84.42
  Q 102.63 88.07 97.24 90.82
  Q 96.76 91.06 95.88 90.74
  Q 95.38 90.30 94.71 90.55
  Q 94.29 90.71 93.98 91.29
  Q 91.23 96.54 88.24 101.69
  Q 87.90 102.27 88.58 102.29
  L 89.12 102.31
  Q 89.61 102.33 89.84 101.91
  L 95.40 92.07
  L 96.60 93.53
  A 0.73 0.73 0.0 0 0 97.51 93.72
  Q 102.92 90.93 108.11 87.78
  Q 109.47 86.95 110.94 86.75
  C 113.50 86.39 117.16 85.28 117.87 88.94
  Q 117.97 89.44 117.53 89.70
  Q 109.52 94.49 101.50 99.26
  Q 99.13 100.67 98.85 98.06
  Q 98.42 95.46 96.27 95.09
  A 1.96 1.96 0.0 0 0 94.33 95.90
  Q 91.89 99.38 94.50 101.99
  Q 94.75 102.90 94.41 103.12
  Q 87.50 107.53 80.20 110.83
  Q 78.88 108.95 74.81 107.66
  Q 81.17 102.81 87.92 99.47
  Q 88.37 99.25 88.61 98.81
  L 89.41 97.37
  Q 92.08 94.21 89.63 91.13
  A 2.09 2.09 0.0 0 0 86.27 91.26
  Q 84.79 93.44 86.06 96.90
  L 67.93 107.76
  C 66.12 106.06 64.00 104.68 64.43 101.98
  L 102.46 80.36
  A 1.11 1.11 0.0 0 1 104.10 81.12
  Q 104.28 82.10 105.42 82.28
  Z"
/>
<path fill="#ffffff" d="
  M 83.51 82.96
  Q 87.23 85.71 81.68 88.94
  Q 78.08 91.03 74.50 93.24
  Q 73.99 93.55 74.42 91.96
  L 83.51 82.96
  Z"
/>
<path fill="#dbe3f5" d="
  M 107.14 84.42
  Q 110.15 86.52 115.43 85.70
  A 1.00 1.00 0.0 0 1 116.28 85.96
  C 118.57 88.13 121.34 90.53 118.64 93.36
  Q 114.20 98.01 109.53 102.49
  L 109.74 101.05
  Q 109.81 100.60 109.44 100.32
  Q 107.50 98.88 105.96 99.77
  Q 94.42 106.44 82.86 113.16
  Q 82.42 113.42 82.42 113.93
  L 82.43 117.16
  Q 82.06 113.55 80.20 110.83
  Q 87.50 107.53 94.41 103.12
  Q 94.75 102.90 94.50 101.99
  C 97.51 102.95 99.10 100.80 98.85 98.06
  Q 99.13 100.67 101.50 99.26
  Q 109.52 94.49 117.53 89.70
  Q 117.97 89.44 117.87 88.94
  C 117.16 85.28 113.50 86.39 110.94 86.75
  Q 109.47 86.95 108.11 87.78
  Q 102.92 90.93 97.51 93.72
  A 0.73 0.73 0.0 0 1 96.60 93.53
  L 95.40 92.07
  L 95.88 90.74
  Q 96.76 91.06 97.24 90.82
  Q 102.63 88.07 107.14 84.42
  Z"
/>
<path fill="#ffffff" d="
  M 73.34 87.55
  L 64.04 96.79
  Q 61.91 97.27 61.79 95.23
  Q 61.68 93.42 63.54 92.27
  Q 68.15 89.42 72.62 86.35
  Q 73.18 85.97 73.34 87.55
  Z"
/>
<path fill="#000000" d="
  M 89.41 97.37
  Q 86.93 97.76 86.06 96.90
  Q 84.79 93.44 86.27 91.26
  A 2.09 2.09 0.0 0 1 89.63 91.13
  Q 92.08 94.21 89.41 97.37
  Z
  M 89.2025 92.9254
  A 1.08 1.08 0.0 0 0 88.1648 91.8047
  L 88.0049 91.7986
  A 1.08 1.08 0.0 0 0 86.8842 92.8363
  L 86.7975 95.0946
  A 1.08 1.08 0.0 0 0 87.8352 96.2153
  L 87.9951 96.2214
  A 1.08 1.08 0.0 0 0 89.1158 95.1837
  L 89.2025 92.9254
  Z"
/>
<path fill="#000000" d="
  M 95.88 90.74
  L 95.40 92.07
  L 89.84 101.91
  Q 89.61 102.33 89.12 102.31
  L 88.58 102.29
  Q 87.90 102.27 88.24 101.69
  Q 91.23 96.54 93.98 91.29
  Q 94.29 90.71 94.71 90.55
  Q 95.38 90.30 95.88 90.74
  Z"
/>
<rect fill="#ffffff" x="-1.16" y="-2.21" transform="translate(88.00,94.01) rotate(2.2)" width="2.32" height="4.42" rx="1.08"/>
<path fill="#ffffff" d="
  M 102.40 114.90
  L 106.04 111.52
  C 108.16 110.02 109.63 107.94 111.87 106.74
  Q 122.03 101.29 132.05 95.52
  C 136.54 92.93 139.62 98.36 134.74 101.18
  Q 120.42 109.46 106.48 117.44
  A 2.63 2.58 -56.2 0 1 104.88 117.77
  Q 102.03 117.42 102.40 114.90
  Z"
/>
<path fill="#000000" d="
  M 98.85 98.06
  C 99.10 100.80 97.51 102.95 94.50 101.99
  Q 91.89 99.38 94.33 95.90
  A 1.96 1.96 0.0 0 1 96.27 95.09
  Q 98.42 95.46 98.85 98.06
  Z
  M 95.9121 101.0983
  A 2.29 1.19 92.2 0 0 97.1891 98.8557
  A 2.29 1.19 92.2 0 0 96.0879 96.5217
  A 2.29 1.19 92.2 0 0 94.8109 98.7643
  A 2.29 1.19 92.2 0 0 95.9121 101.0983
  Z"
/>
<path fill="#dbe3f5" d="
  M 86.06 96.90
  Q 86.93 97.76 89.41 97.37
  L 88.61 98.81
  Q 88.37 99.25 87.92 99.47
  Q 81.17 102.81 74.81 107.66
  L 69.63 108.65
  Q 69.11 108.75 68.71 108.41
  L 67.93 107.76
  L 86.06 96.90
  Z"
/>
<ellipse fill="#ffffff" cx="0.00" cy="0.00" transform="translate(96.00,98.81) rotate(92.2)" rx="2.29" ry="1.19"/>
<path fill="#ffffff" d="
  M 109.53 102.49
  L 102.99 108.97
  Q 93.43 114.54 83.78 119.82
  Q 82.54 120.49 81.74 120.36
  Q 81.69 118.62 82.43 117.16
  L 82.42 113.93
  Q 82.42 113.42 82.86 113.16
  Q 94.42 106.44 105.96 99.77
  Q 107.50 98.88 109.44 100.32
  Q 109.81 100.60 109.74 101.05
  L 109.53 102.49
  Z"
/>
<path fill="#ffffff" d="
  M 61.20 105.66
  Q 61.73 107.36 62.82 108.42
  L 63.07 109.75
  Q 63.17 110.29 62.70 110.57
  Q 53.51 116.02 44.26 121.38
  C 38.70 124.60 36.31 118.40 40.45 116.14
  Q 50.15 110.83 59.62 105.14
  Q 60.00 104.91 60.30 105.24
  Q 60.67 105.67 61.20 105.66
  Z"
/>
<path fill="#ffffff" d="
  M 0.00 106.86
  Q 2.64 125.09 9.76 138.50
  Q 32.70 181.76 82.86 188.00
  L 0.00 188.00
  L 0.00 106.86
  Z"
/>
<path fill="#dbe3f5" d="
  M 102.99 108.97
  L 92.56 119.14
  Q 88.06 119.20 85.00 123.39
  L 81.74 120.36
  Q 82.54 120.49 83.78 119.82
  Q 93.43 114.54 102.99 108.97
  Z"
/>
<rect fill="#ffffff" x="-44.81" y="-3.16" transform="translate(100.76,138.46) rotate(-30.0)" width="89.62" height="6.32" rx="3.00"/>
<path fill="#ffffff" d="
  M 92.56 119.14
  C 90.24 121.80 88.32 124.60 85.00 123.39
  Q 88.06 119.20 92.56 119.14
  Z"
/>
<path fill="#ffffff" d="
  M 30.14 146.55
  L 28.70 145.08
  Q 28.21 144.58 28.82 144.23
  Q 48.06 133.29 67.13 122.18
  C 69.89 120.58 72.73 120.07 73.48 124.03
  Q 73.72 125.35 71.92 126.42
  Q 52.39 138.02 32.73 149.42
  Q 32.16 149.75 31.83 149.18
  L 30.80 147.41
  Q 30.52 146.94 30.14 146.55
  Z"
/>
<rect fill="#ffffff" x="-12.91" y="-3.15" transform="translate(96.59,130.12) rotate(-30.0)" width="25.82" height="6.30" rx="3.06"/>
<rect fill="#ffffff" x="-16.60" y="-3.24" transform="translate(124.98,135.17) rotate(-29.9)" width="33.20" height="6.48" rx="3.17"/>
<path fill="#ffffff" d="
  M 81.15 125.01
  Q 83.36 127.44 85.81 127.58
  Q 86.59 127.75 86.54 128.61
  Q 86.50 129.09 86.08 129.33
  Q 71.53 137.66 57.13 146.22
  C 52.61 148.90 49.01 143.22 53.17 140.82
  Q 67.19 132.77 81.15 125.01
  Z"
/>
<path fill="#ffffff" d="
  M 159.12 139.12
  Q 157.08 142.03 154.26 143.58
  Q 141.95 150.33 129.83 157.41
  C 127.72 158.64 125.18 157.15 125.09 154.49
  C 125.04 152.79 126.48 152.12 127.80 151.34
  Q 141.62 143.24 155.59 135.42
  C 158.64 133.72 161.18 136.21 159.12 139.12
  Z"
/>
<rect fill="#ffffff" x="-19.39" y="-3.16" transform="translate(116.07,150.91) rotate(-30.0)" width="38.78" height="6.32" rx="3.10"/>
<rect fill="#ffffff" x="-5.95" y="-3.28" transform="translate(102.15,148.31) rotate(-30.6)" width="11.90" height="6.56" rx="3.12"/>
</svg>
