<?xml version="1.0" standalone="no"?>
<!DOCTYPE svg PUBLIC "-//W3C//DTD SVG 20010904//EN"
 "http://www.w3.org/TR/2001/REC-SVG-20010904/DTD/svg10.dtd">
<svg version="1.0" xmlns="http://www.w3.org/2000/svg"
 width="375.000000pt" height="375.000000pt" viewBox="0 0 375.000000 375.000000"
 preserveAspectRatio="xMidYMid meet">

<g transform="translate(0.000000,375.000000) scale(0.100000,-0.100000)"
fill="#000000" stroke="none">
<path d="M402 2839 c-18 -5 -30 -14 -27 -18 3 -5 -4 -7 -15 -4 -28 7 -67 -30
-92 -85 -27 -60 -18 -129 28 -205 43 -69 47 -101 23 -147 -11 -20 -19 -55 -19
-82 0 -58 -13 -122 -51 -253 -22 -73 -31 -130 -35 -210 -3 -69 -13 -135 -26
-178 -17 -55 -19 -81 -14 -140 4 -39 9 -90 11 -112 2 -22 6 -70 10 -107 3 -37
13 -80 20 -96 25 -49 148 -132 196 -132 11 0 32 -6 47 -14 35 -18 131 -38 201
-42 30 -2 57 -8 61 -14 7 -11 21 -12 365 -30 275 -13 290 -18 407 -123 24 -21
49 -36 58 -35 8 2 31 -14 51 -34 23 -24 46 -38 62 -38 13 0 30 -7 37 -15 7 -8
28 -17 49 -21 20 -3 51 -12 68 -20 22 -10 46 -13 69 -8 25 5 39 3 44 -7 5 -8
40 -16 87 -21 43 -4 98 -10 123 -14 54 -7 191 -13 395 -16 83 -2 156 -7 163
-11 17 -11 326 10 426 29 110 21 161 40 229 82 65 42 82 76 51 100 -10 8 -45
27 -78 42 l-59 27 64 36 c35 19 80 49 99 65 19 17 52 45 73 63 48 41 61 64 48
87 -6 9 -11 11 -11 5 0 -7 -6 -13 -14 -13 -8 0 -16 -5 -18 -12 -3 -7 -10 -8
-17 -4 -9 6 0 15 27 29 37 18 64 57 40 57 -5 0 -6 9 -3 20 6 18 1 17 -41 -10
-49 -31 -84 -39 -84 -19 0 18 83 90 98 84 13 -5 13 -5 -4 100 -8 46 -35 92
-63 107 -14 7 -36 23 -48 35 -33 32 -80 51 -143 56 -30 3 -86 13 -125 23 -38
9 -99 20 -135 23 -52 6 -76 14 -119 45 -30 20 -60 45 -67 54 -11 14 -16 15
-33 5 -28 -17 -36 -16 -21 2 19 23 -3 44 -25 25 -8 -7 -19 -9 -23 -5 -4 4 -1
10 6 12 16 6 15 23 -2 23 -7 0 -19 7 -26 15 -7 8 -30 18 -51 21 -34 6 -38 9
-33 29 5 19 0 25 -30 36 -19 7 -33 16 -30 21 3 4 1 8 -4 8 -13 0 -54 40 -75
72 -9 15 -28 30 -42 34 -14 3 -25 12 -25 20 0 8 -9 14 -20 14 -27 0 -96 64
-104 96 -4 13 -19 32 -34 42 -15 9 -27 26 -27 37 0 14 -6 19 -22 18 -11 -1
-23 4 -26 12 -3 7 -18 33 -34 57 -15 24 -32 61 -38 83 -8 33 -17 43 -53 61
-51 24 -63 40 -56 71 4 16 1 25 -10 29 -9 3 -16 12 -16 20 0 19 -40 44 -72 44
-16 0 -31 7 -37 19 -12 21 -77 55 -90 46 -5 -3 -19 8 -31 25 -12 17 -26 28
-31 25 -5 -4 -6 0 -4 8 6 14 -61 64 -92 68 -10 2 -94 -34 -186 -81 -220 -109
-256 -149 -259 -285 0 -30 -7 -50 -20 -62 -18 -16 -23 -16 -82 -1 -77 20 -163
60 -205 96 -22 18 -43 54 -65 111 -58 147 -107 171 -221 111 -31 -16 -60 -30
-65 -30 -4 0 -7 26 -7 58 0 56 -14 99 -37 114 -13 9 -22 9 -64 -3z m1353 -169
c3 -5 2 -10 -4 -10 -5 0 -13 5 -16 10 -3 6 -2 10 4 10 5 0 13 -4 16 -10z
m-1395 -110 c10 0 11 -3 4 -8 -7 -4 -13 -16 -15 -26 -6 -30 -22 -29 -41 3 -18
33 -13 45 17 37 11 -3 27 -6 35 -6z m1167 -51 c2 -16 -1 -19 -9 -11 -5 5 -7
15 -4 21 10 15 12 14 13 -10z m183 -4 c0 -9 -6 -12 -16 -8 -13 5 -13 7 -2 14
17 11 18 11 18 -6z m27 -7 c-3 -8 -6 -5 -6 6 -1 11 2 17 5 13 3 -3 4 -12 1
-19z m-233 -13 c2 -7 -2 -16 -10 -19 -8 -3 -14 1 -14 10 0 11 -6 13 -21 9 -19
-6 -20 -5 -8 7 15 17 45 13 53 -7z m-1144 5 c0 -5 -4 -10 -10 -10 -5 0 -10 5
-10 10 0 6 5 10 10 10 6 0 10 -4 10 -10z m1235 -30 c3 -5 2 -10 -4 -10 -5 0
-13 5 -16 10 -3 6 -2 10 4 10 5 0 13 -4 16 -10z m-115 -21 c0 -5 -4 -9 -10 -9
-5 0 -10 7 -10 16 0 8 5 12 10 9 6 -3 10 -10 10 -16z m250 -3 c0 -3 -4 -8 -10
-11 -5 -3 -10 -1 -10 4 0 6 5 11 10 11 6 0 10 -2 10 -4z m-36 -27 c-3 -5 -10
-7 -15 -3 -5 3 -7 10 -3 15 3 5 10 7 15 3 5 -3 7 -10 3 -15z m-37 -12 c-6 -19
-23 -18 -23 2 0 11 5 17 14 14 7 -3 11 -10 9 -16z m-132 3 c6 -10 -1 -14 -48
-24 -26 -6 -27 -6 -10 14 19 21 48 26 58 10z m95 -21 c0 -12 -5 -19 -12 -16
-7 2 -21 -2 -30 -11 -12 -10 -18 -11 -18 -3 0 6 11 17 25 23 14 6 25 15 25 20
0 4 2 8 5 8 3 0 5 -9 5 -21z m230 -4 c0 -8 -2 -15 -4 -15 -2 0 -6 7 -10 15 -3
8 -1 15 4 15 6 0 10 -7 10 -15z m-20 -21 c0 -8 -5 -12 -10 -9 -6 4 -8 11 -5
16 9 14 15 11 15 -7z m-390 -24 c0 -5 -7 -10 -15 -10 -8 0 -15 5 -15 10 0 6 7
10 15 10 8 0 15 -4 15 -10z m370 0 c0 -5 -7 -10 -15 -10 -10 0 -15 -10 -15
-26 0 -23 -2 -25 -15 -14 -14 12 -13 16 6 37 24 24 39 30 39 13z m170 -40 c0
-11 -5 -20 -11 -20 -5 0 -7 5 -4 10 3 6 -2 10 -12 11 -16 0 -16 1 2 9 11 5 21
9 23 9 1 1 2 -8 2 -19z m-595 -10 c3 -5 1 -10 -4 -10 -6 0 -11 5 -11 10 0 6 2
10 4 10 3 0 8 -4 11 -10z m361 -27 c-10 -10 -19 5 -10 18 6 11 8 11 12 0 2 -7
1 -15 -2 -18z m-26 -25 c0 -16 -3 -19 -11 -11 -6 6 -8 16 -5 22 11 17 16 13
16 -11z m359 -18 c17 0 71 -32 71 -42 0 -4 -16 2 -35 14 -20 11 -38 18 -40 16
-3 -3 6 -10 19 -18 13 -7 27 -22 30 -34 4 -18 3 -19 -7 -6 -20 26 -60 50 -83
50 -12 0 -24 7 -28 15 -4 12 -2 13 14 3 25 -16 37 -4 19 19 -13 17 -13 17 7 1
11 -10 26 -18 33 -18z m-379 -32 c0 -5 -4 -8 -10 -8 -5 0 -10 10 -10 23 0 18
2 19 10 7 5 -8 10 -18 10 -22z m276 -38 c0 -13 -7 -20 -18 -20 -10 0 -18 -4
-18 -10 0 -5 -8 -10 -17 -9 -11 0 -13 3 -5 6 6 2 10 9 6 14 -3 5 4 9 14 9 11
0 22 7 26 15 8 21 12 19 12 -5z m-1433 -116 c-8 -21 -23 -17 -17 4 5 14 4 14
-4 2 -8 -10 -8 -18 0 -27 6 -8 9 -16 6 -18 -7 -7 -88 82 -88 95 0 6 6 8 13 4
8 -6 8 -3 -1 9 -8 9 -11 21 -7 28 10 15 105 -79 98 -97z m1197 98 c0 -4 -20
-28 -45 -52 -54 -53 -60 -40 -9 19 34 39 54 51 54 33z m480 -47 c1 -5 19 -25
42 -42 22 -18 34 -33 26 -33 -14 0 -128 110 -128 124 0 11 59 -37 60 -49z
m-328 13 c-7 -7 -10 -5 -7 8 5 29 6 30 12 16 3 -8 1 -18 -5 -24z m143 12 c-3
-5 -1 -10 4 -10 6 0 11 -5 11 -11 0 -8 -5 -7 -16 2 -14 11 -16 10 -12 -11 2
-17 -1 -24 -10 -22 -8 1 -16 -7 -19 -18 -7 -26 -23 -26 -23 0 0 11 7 20 15 20
8 0 15 5 15 12 0 6 7 20 17 30 17 19 28 24 18 8z m160 -47 c32 -33 53 -63 50
-71 -3 -7 -5 -18 -5 -23 0 -5 -5 -9 -10 -9 -7 0 -7 6 -1 18 8 15 1 27 -32 63
-50 53 -72 79 -64 79 4 0 31 -26 62 -57z m-405 41 c0 -10 -83 -94 -88 -89 -7
6 67 95 79 95 5 0 9 -3 9 -6z m75 -4 c-3 -5 -11 -10 -16 -10 -6 0 -7 5 -4 10
3 6 11 10 16 10 6 0 7 -4 4 -10z m-1220 -100 c8 0 15 -4 15 -9 0 -14 -32 -3
-60 21 l-25 20 27 -16 c15 -9 34 -16 43 -16z m1321 -5 c1 -8 -2 -15 -7 -15 -5
0 -9 10 -9 22 0 23 12 17 16 -7z m-1516 -19 c0 -2 -7 -7 -16 -10 -8 -3 -12 -2
-9 4 6 10 25 14 25 6z m164 -32 c3 -9 -7 -5 -24 8 -17 12 -30 23 -30 25 0 8
50 -22 54 -33z m1591 17 c3 -5 1 -12 -4 -15 -5 -3 -11 1 -15 9 -6 16 9 21 19
6z m-195 -4 c0 -2 -16 -21 -35 -43 -19 -21 -35 -42 -35 -46 0 -5 -7 -8 -16 -8
-15 0 2 30 51 87 9 11 35 18 35 10z m-1310 -22 c0 -8 -4 -15 -10 -15 -5 0 -7
7 -4 15 4 8 8 15 10 15 2 0 4 -7 4 -15z m1470 6 c0 -6 -4 -13 -10 -16 -5 -3
-10 1 -10 9 0 9 5 16 10 16 6 0 10 -4 10 -9z m-1418 -8 c-10 -4 -9 -9 4 -24 9
-10 12 -19 7 -19 -6 0 -14 7 -17 16 -3 8 -10 13 -15 9 -5 -3 -12 -1 -15 4 -4
5 2 12 11 14 25 6 41 7 25 0z m1546 -18 c-3 -3 -9 2 -12 12 -6 14 -5 15 5 6 7
-7 10 -15 7 -18z m110 -2 c38 -29 57 -45 107 -88 22 -18 24 -24 10 -19 -11 4
-38 24 -61 46 -22 21 -42 37 -45 35 -2 -2 -17 10 -34 25 -38 36 -25 36 23 1z
m-374 -13 c-23 -38 -62 -80 -75 -80 -11 0 22 49 34 50 4 0 7 7 7 15 0 8 5 15
10 15 6 0 10 7 10 15 0 8 7 15 16 15 13 0 13 -4 -2 -30z m236 14 c0 -8 -5 -12
-10 -9 -6 4 -8 11 -5 16 9 14 15 11 15 -7z m116 -22 c17 -15 48 -42 69 -60 22
-17 34 -32 28 -32 -6 0 -35 20 -64 45 -29 25 -56 45 -60 45 -4 0 -9 7 -13 15
-8 23 6 18 40 -13z m-136 -12 c0 -11 -4 -20 -10 -20 -5 0 -10 9 -10 20 0 11 5
20 10 20 6 0 10 -9 10 -20z m-376 -9 c3 -5 -5 -12 -18 -15 -13 -3 -32 -9 -43
-12 -13 -4 -11 0 7 15 27 22 46 26 54 12z m-1351 -44 c-7 -11 -23 2 -23 19 0
12 2 12 14 2 8 -7 12 -16 9 -21z m1694 19 c-3 -8 -2 -17 4 -20 5 -2 4 -3 -3
-2 -17 3 -23 36 -8 36 7 0 10 -6 7 -14z m-1657 -6 c0 -5 -5 -10 -11 -10 -5 0
-7 5 -4 10 3 6 8 10 11 10 2 0 4 -4 4 -10z m33 -5 c-3 -9 -8 -14 -10 -11 -3 3
-2 9 2 15 9 16 15 13 8 -4z m174 -17 c-3 -7 -5 -2 -5 12 0 14 2 19 5 13 2 -7
2 -19 0 -25z m1088 12 c-3 -5 -12 -10 -18 -10 -7 0 -6 4 3 10 19 12 23 12 15
0z m342 -32 c-3 -8 -6 -5 -6 6 -1 11 2 17 5 13 3 -3 4 -12 1 -19z m-1591 -12
c-3 -14 -2 -28 4 -31 14 -9 12 -37 -2 -33 -7 3 -16 21 -19 41 -3 20 -2 34 3
31 4 -3 8 0 8 5 0 6 3 11 6 11 3 0 3 -11 0 -24z m1214 20 c0 -2 -7 -6 -15 -10
-8 -3 -15 -1 -15 4 0 6 7 10 15 10 8 0 15 -2 15 -4z m694 -22 c3 -8 2 -12 -4
-9 -6 3 -10 10 -10 16 0 14 7 11 14 -7z m-739 -4 c-3 -5 -12 -10 -18 -10 -7 0
-6 4 3 10 19 12 23 12 15 0z m-1205 -10 c10 -6 11 -10 3 -10 -7 0 -13 -7 -13
-16 0 -8 -5 -12 -10 -9 -6 4 -8 11 -5 16 4 5 -1 9 -10 9 -9 0 -13 5 -10 10 8
13 26 13 45 0z m65 0 c-3 -5 -12 -10 -18 -10 -7 0 -6 4 3 10 19 12 23 12 15 0z
m1609 1 c4 -5 3 -11 -2 -13 -4 -1 -22 -23 -40 -47 -26 -37 -32 -41 -32 -23 0
12 5 22 10 22 6 0 10 5 10 11 0 13 32 58 42 59 4 0 9 -4 12 -9z m173 -4 c0 -8
-6 -14 -13 -14 -7 0 -10 6 -7 14 3 7 8 13 12 13 4 0 8 -6 8 -13z m-1953 -6 c3
-5 16 -7 29 -4 18 4 16 2 -7 -11 -40 -22 -66 -21 -66 4 0 21 33 29 44 11z
m2042 -18 c-7 -7 -26 7 -26 19 0 6 6 6 15 -2 9 -7 13 -15 11 -17z m-1849 -5
c-3 -8 -6 -5 -6 6 -1 11 2 17 5 13 3 -3 4 -12 1 -19z m1721 10 c-2 -6 -10 -14
-16 -16 -7 -2 -10 2 -6 12 7 18 28 22 22 4z m249 -7 c17 -11 39 -27 50 -35 10
-9 26 -21 36 -28 16 -12 16 -14 -1 -25 -16 -10 -28 -5 -78 29 -65 45 -110 84
-59 53 17 -10 39 -24 50 -30 11 -5 33 -19 48 -29 47 -32 39 -12 -8 22 -25 18
-48 32 -51 32 -3 0 -12 7 -20 15 -21 21 -5 19 33 -4z m-1400 3 c-3 -3 -12 -4
-19 -1 -8 3 -5 6 6 6 11 1 17 -2 13 -5z m1063 -2 c0 -5 -14 -29 -31 -53 -40
-56 -38 -53 -45 -46 -7 6 27 67 37 67 4 0 9 9 12 20 5 19 27 29 27 12z m50 -6
c0 -3 -4 -8 -10 -11 -5 -3 -10 -1 -10 4 0 6 5 11 10 11 6 0 10 -2 10 -4z m144
-21 c3 -8 1 -15 -3 -15 -5 0 -11 7 -15 15 -3 8 -1 15 3 15 5 0 11 -7 15 -15z
m-1804 -11 c0 -8 -5 -12 -10 -9 -6 4 -8 11 -5 16 9 14 15 11 15 -7z m24 -18
c-3 -9 -13 -16 -22 -16 -13 0 -12 3 3 20 20 23 29 21 19 -4z m1403 2 c-15 -5
-25 -14 -21 -19 3 -5 -4 -9 -15 -9 -12 0 -21 2 -21 5 0 8 54 34 70 34 8 0 3
-5 -13 -11z m363 -14 c0 -8 -4 -12 -10 -9 -5 3 -10 10 -10 16 0 5 5 9 10 9 6
0 10 -7 10 -16z m-1721 -43 c-1 -11 -3 -10 -6 3 -4 15 -7 16 -13 5 -13 -19
-20 -7 -13 20 6 23 7 23 20 6 7 -11 12 -26 12 -34z m51 28 c0 -6 -4 -7 -10 -4
-5 3 -10 11 -10 16 0 6 5 7 10 4 6 -3 10 -11 10 -16z m1310 -7 c0 -8 -61 -34
-67 -28 -3 3 55 35 65 36 1 0 2 -4 2 -8z m387 -27 c-10 -7 -17 -17 -17 -24 0
-6 -4 -11 -9 -11 -6 0 -18 -13 -27 -29 -16 -27 -64 -49 -64 -30 0 4 -6 9 -12
12 -7 2 -3 2 10 0 22 -3 52 16 52 34 0 17 62 73 73 66 6 -4 4 -11 -6 -18z m36
-43 c-10 -11 -29 -32 -42 -46 -25 -28 -47 -35 -34 -11 17 30 87 97 91 87 2 -6
-5 -20 -15 -30z m-499 20 c-5 -4 -12 -11 -15 -15 -3 -5 -9 -2 -12 5 -3 9 3 14
15 15 11 1 16 -1 12 -5z m61 -2 c3 -5 -1 -10 -10 -10 -9 0 -13 5 -10 10 3 6 8
10 10 10 2 0 7 -4 10 -10z m52 -6 c-3 -3 -12 -4 -19 -1 -8 3 -5 6 6 6 11 1 17
-2 13 -5z m473 -4 c0 -5 -5 -10 -11 -10 -5 0 -7 5 -4 10 3 6 8 10 11 10 2 0 4
-4 4 -10z m-630 -10 c0 -5 -5 -10 -11 -10 -5 0 -7 5 -4 10 3 6 8 10 11 10 2 0
4 -4 4 -10z m32 -26 c-12 -8 -19 -20 -16 -26 4 -6 2 -8 -4 -4 -5 3 -12 0 -15
-6 -2 -7 -8 -10 -12 -6 -9 9 40 58 58 58 6 0 1 -7 -11 -16z m304 -41 c-10 -10
-19 5 -10 18 6 11 8 11 12 0 2 -7 1 -15 -2 -18z m-2036 -5 c0 -4 -7 -8 -15 -8
-8 0 -15 4 -15 8 0 5 7 9 15 9 8 0 15 -4 15 -9z m260 -7 c75 -19 169 -53 251
-89 24 -11 92 -38 151 -60 109 -42 245 -112 218 -112 -8 0 -33 11 -55 25 -22
13 -51 25 -65 25 -20 0 -22 2 -10 11 11 8 6 9 -20 4 -27 -5 -32 -4 -20 5 12 9
10 11 -12 7 -16 -2 -28 -1 -28 3 0 11 -48 30 -75 30 -14 0 -25 -4 -25 -10 0
-14 -16 -13 -32 3 -11 10 -93 50 -183 87 -73 31 -167 41 -180 19 -4 -6 -18 2
-34 20 -24 27 -34 31 -79 31 -29 0 -52 4 -52 9 0 17 173 12 250 -8z m1813 -15
c7 5 5 1 -5 -8 -17 -16 -17 -17 -1 -20 14 -3 11 -8 -14 -21 -18 -10 -33 -13
-33 -7 0 5 -5 10 -10 10 -6 0 -5 -8 2 -21 11 -17 10 -23 -9 -38 -12 -10 -19
-22 -15 -27 4 -4 -6 0 -23 11 -26 16 -28 16 -16 2 8 -10 12 -18 10 -20 -41
-23 -47 -25 -58 -14 -15 15 -14 40 1 31 8 -5 9 -2 5 9 -4 10 -2 16 6 14 7 -1
11 4 10 11 -4 18 12 15 32 -8 10 -11 20 -18 23 -15 3 3 -3 14 -13 25 -22 24
-16 41 24 69 26 18 31 20 31 7 0 -9 -7 -16 -15 -16 -8 0 -15 -4 -15 -10 0 -5
-7 -10 -15 -10 -8 0 -15 -4 -15 -10 0 -16 19 -11 40 10 12 12 25 18 29 15 5
-3 8 6 6 20 -2 20 0 23 11 14 9 -7 19 -8 27 -3z m102 4 c3 -5 1 -10 -4 -10 -6
0 -11 5 -11 10 0 6 2 10 4 10 3 0 8 -4 11 -10z m-51 -15 c-4 -8 -11 -12 -16
-9 -6 4 -5 10 3 15 19 12 19 11 13 -6z m-540 -10 c-7 -17 -20 -20 -29 -6 -3 5
3 12 12 14 10 3 19 5 20 6 1 0 0 -6 -3 -14z m295 -39 c-3 -3 -11 5 -18 17 -13
21 -12 21 5 5 10 -10 16 -20 13 -22z m271 30 c0 -2 -7 -7 -16 -10 -8 -3 -12
-2 -9 4 6 10 25 14 25 6z m-2065 -25 c8 -21 -14 -31 -67 -31 -47 0 -64 10 -55
33 7 18 115 16 122 -2z m1855 -3 c0 -4 -7 -8 -15 -8 -8 0 -15 -3 -15 -7 0 -15
-46 -30 -56 -19 -29 31 -20 44 14 22 9 -5 19 -3 28 6 16 16 44 20 44 6z
m-1693 -4 c-3 -3 -12 -4 -19 -1 -8 3 -5 6 6 6 11 1 17 -2 13 -5z m1598 -34 c3
-6 -2 -18 -11 -28 -16 -15 -17 -15 -12 -1 4 9 1 22 -5 28 -8 8 -7 11 5 11 9 0
20 -5 23 -10z m32 -52 c-3 -7 -5 -2 -5 12 0 14 2 19 5 13 2 -7 2 -19 0 -25z
m-31 -20 c-9 -5 -22 -7 -29 -4 -7 2 -4 5 6 5 9 1 17 6 17 12 0 5 5 7 11 3 8
-5 6 -10 -5 -16z m-1745 -2 c-10 -12 -2 -15 46 -18 32 -2 77 0 101 4 33 6 60
2 120 -17 66 -22 138 -54 122 -55 -3 0 -39 12 -80 27 -81 28 -172 34 -223 14
-30 -11 -110 -4 -102 9 6 9 -42 17 -68 12 -14 -3 -8 -9 23 -24 22 -11 39 -22
37 -25 -6 -5 -110 49 -119 62 -8 10 43 21 116 23 32 2 36 0 27 -12z m306 -2
c-3 -3 -12 -4 -19 -1 -8 3 -5 6 6 6 11 1 17 -2 13 -5z m-412 -72 c-3 -3 -11 0
-18 7 -9 10 -8 11 6 5 10 -3 15 -9 12 -12z m275 -7 c46 -18 28 -18 -35 0 -29
8 -39 14 -25 14 14 0 41 -7 60 -14z m-85 -19 c28 -6 60 -11 73 -10 23 1 30
-10 12 -21 -20 -12 -71 -15 -64 -3 4 6 1 9 -5 7 -20 -7 -14 -24 11 -31 21 -5
21 -6 3 -8 -31 -4 -45 -1 -118 22 -39 13 -73 30 -78 40 -12 22 8 23 66 3 31
-11 36 -11 23 -1 -25 18 -22 29 5 20 12 -4 45 -12 72 -18z m2238 9 c-3 -9 -8
-14 -10 -11 -3 3 -2 9 2 15 9 16 15 13 8 -4z m-2038 -5 l20 -9 -20 1 c-11 0
-31 4 -45 8 l-25 8 25 0 c14 0 34 -3 45 -8z m146 -8 c-7 -2 -18 1 -23 6 -8 8
-4 9 13 5 13 -4 18 -8 10 -11z m424 -2 c3 -6 -1 -7 -9 -4 -18 7 -21 14 -7 14
6 0 13 -4 16 -10z m-508 -6 c-3 -3 -12 -4 -19 -1 -8 3 -5 6 6 6 11 1 17 -2 13
-5z m2797 -13 c-28 -25 -60 -42 -68 -34 -3 4 11 17 31 29 47 28 63 30 37 5z
m-2199 -31 c3 -5 2 -10 -4 -10 -5 0 -13 5 -16 10 -3 6 -2 10 4 10 5 0 13 -4
16 -10z m-357 -17 c-10 -2 -28 -2 -40 0 -13 2 -5 4 17 4 22 1 32 -1 23 -4z
m462 -58 c6 3 10 2 10 -4 0 -5 -3 -12 -7 -14 -12 -7 -53 11 -53 23 0 8 6 8 20
0 11 -6 25 -8 30 -5z m2015 -5 c3 -5 2 -10 -4 -10 -5 0 -13 5 -16 10 -3 6 -2
10 4 10 5 0 13 -4 16 -10z m-1950 -10 c-3 -5 -16 -10 -28 -10 -18 0 -19 2 -7
10 20 13 43 13 35 0z m1748 -11 c-17 -11 -42 -22 -55 -24 -12 -3 -50 -18 -83
-34 -79 -39 -218 -75 -387 -101 -128 -19 -238 -26 -226 -15 6 6 63 13 116 14
45 1 49 14 8 32 -19 9 -18 9 4 3 54 -14 90 -16 90 -6 0 6 -12 13 -27 15 -24 4
-23 5 7 5 93 3 278 42 470 101 116 35 123 36 83 10z m-1646 -19 c43 -17 87
-35 98 -41 19 -9 19 -9 -1 -4 -13 3 -27 -1 -34 -10 -17 -20 -57 -12 -129 26
-30 16 -61 29 -70 30 -9 0 0 6 19 13 19 8 36 14 37 15 1 0 37 -13 80 -29z
m188 -64 l50 -14 -42 1 c-24 1 -43 5 -43 10 0 4 -5 7 -11 7 -6 0 -9 -6 -6 -12
2 -7 11 -13 20 -13 26 0 25 -20 0 -23 -13 -2 -23 1 -23 6 0 5 -15 13 -32 17
l-33 7 30 14 c37 16 30 16 90 0z m102 -32 c-3 -3 -12 -4 -19 -1 -8 3 -5 6 6 6
11 1 17 -2 13 -5z m3 -24 c16 0 40 -5 54 -11 17 -8 32 -8 53 -1 l28 10 -30 1
c-16 1 -37 6 -45 11 -10 7 0 8 35 5 70 -8 85 -14 86 -33 0 -14 2 -15 7 -2 9
19 62 24 62 5 0 -7 -8 -15 -17 -18 -10 -2 9 -3 42 -1 l60 3 -50 -11 c-66 -14
-109 -15 -175 -1 -30 6 -84 17 -120 23 -72 13 -83 17 -75 30 3 5 16 5 31 0 14
-6 38 -10 54 -10z m600 0 c-43 -9 -255 -22 -248 -15 3 3 57 9 119 14 151 11
173 11 129 1z m-277 -17 c-13 -2 -33 -2 -45 0 -13 2 -3 4 22 4 25 0 35 -2 23
-4z m47 -23 c-19 -13 -30 -13 -30 0 0 6 10 10 23 10 18 0 19 -2 7 -10z m-591
-15 c7 3 8 0 5 -9 -7 -18 -30 -11 -38 11 -5 13 -4 14 8 4 8 -7 20 -10 25 -6z
m671 5 c0 -5 -4 -10 -10 -10 -5 0 -10 5 -10 10 0 6 5 10 10 10 6 0 10 -4 10
-10z m-533 -6 c-3 -3 -12 -4 -19 -1 -8 3 -5 6 6 6 11 1 17 -2 13 -5z m-67 -26
c40 -13 53 -28 25 -28 -19 0 -85 27 -85 34 0 9 17 7 60 -6z m266 -45 c-15 -4
-16 -7 -5 -14 8 -5 9 -9 3 -9 -6 0 -17 7 -24 15 -11 13 -8 15 16 14 20 -1 23
-3 10 -6z"/>
<path d="M481 2044 c15 -16 25 -21 28 -13 2 7 -4 18 -15 26 -30 22 -39 15 -13
-13z"/>
<path d="M835 1350 c-3 -5 1 -10 9 -10 9 0 16 5 16 10 0 6 -4 10 -9 10 -6 0
-13 -4 -16 -10z"/>
<path d="M448 1183 c7 -3 16 -2 19 1 4 3 -2 6 -13 5 -11 0 -14 -3 -6 -6z"/>
<path d="M3088 993 c7 -3 16 -2 19 1 4 3 -2 6 -13 5 -11 0 -14 -3 -6 -6z"/>
<path d="M1510 1039 c-13 -9 -12 -10 3 -5 9 3 17 1 17 -4 0 -6 10 -10 22 -10
21 0 21 0 2 15 -23 17 -25 18 -44 4z"/>
<path d="M1630 990 c0 -5 7 -10 15 -10 8 0 15 5 15 10 0 6 -7 10 -15 10 -8 0
-15 -4 -15 -10z"/>
<path d="M3486 1239 c-15 -12 -25 -23 -23 -25 6 -7 67 17 67 26 0 19 -19 19
-44 -1z"/>
</g>
</svg>
